%FSLAX45Y45*%
G04 Gerber Fmt 4.5, Leading zero omitted, Abs format (unit mm)*
G04 Created by KiCad (PCBNEW 4.0.7) date 12/03/19 08:57:27*
%MOMM*%
%LPD*%
G01*
G04 APERTURE LIST*
%ADD10C,0.127000*%
%ADD11C,0.150000*%
%ADD12C,0.200000*%
%ADD13C,0.300000*%
G04 APERTURE END LIST*
D10*
D11*
X22098000Y-5842000D02*
X22098000Y-12573000D01*
X7620000Y-12573000D02*
X22098000Y-12573000D01*
X7620000Y-5842000D02*
X7620000Y-12573000D01*
X7620000Y-5842000D02*
X22098000Y-5842000D01*
D12*
X12419000Y-9600500D02*
X12474000Y-9655500D01*
X12474000Y-9600500D02*
X12419000Y-9655500D01*
X12483000Y-8100500D02*
X12538000Y-8155500D01*
X12538000Y-8100500D02*
X12483000Y-8155500D01*
X12863000Y-8100500D02*
X12918000Y-8155500D01*
X12918000Y-8100500D02*
X12863000Y-8155500D01*
X12927000Y-9600500D02*
X12982000Y-9655500D01*
X12982000Y-9600500D02*
X12927000Y-9655500D01*
X17499000Y-9600500D02*
X17554000Y-9655500D01*
X17554000Y-9600500D02*
X17499000Y-9655500D01*
X17563000Y-8100500D02*
X17618000Y-8155500D01*
X17618000Y-8100500D02*
X17563000Y-8155500D01*
X17943000Y-8100500D02*
X17998000Y-8155500D01*
X17998000Y-8100500D02*
X17943000Y-8155500D01*
X18007000Y-9600500D02*
X18062000Y-9655500D01*
X18062000Y-9600500D02*
X18007000Y-9655500D01*
X8803640Y-7874000D02*
G75*
G03X8803640Y-7874000I-40640J0D01*
G01*
X8803640Y-10922000D02*
G75*
G03X8803640Y-10922000I-40640J0D01*
G01*
X8803640Y-11938000D02*
G75*
G03X8803640Y-11938000I-40640J0D01*
G01*
X9057640Y-7874000D02*
G75*
G03X9057640Y-7874000I-40640J0D01*
G01*
X9565640Y-10922000D02*
G75*
G03X9565640Y-10922000I-40640J0D01*
G01*
X9565640Y-11938000D02*
G75*
G03X9565640Y-11938000I-40640J0D01*
G01*
X9819640Y-8763000D02*
G75*
G03X9819640Y-8763000I-40640J0D01*
G01*
X9819640Y-9144000D02*
G75*
G03X9819640Y-9144000I-40640J0D01*
G01*
X9819640Y-9525000D02*
G75*
G03X9819640Y-9525000I-40640J0D01*
G01*
X9819640Y-9906000D02*
G75*
G03X9819640Y-9906000I-40640J0D01*
G01*
X9819640Y-10287000D02*
G75*
G03X9819640Y-10287000I-40640J0D01*
G01*
X10073640Y-7874000D02*
G75*
G03X10073640Y-7874000I-40640J0D01*
G01*
X10327640Y-7874000D02*
G75*
G03X10327640Y-7874000I-40640J0D01*
G01*
X10581640Y-8763000D02*
G75*
G03X10581640Y-8763000I-40640J0D01*
G01*
X10581640Y-9144000D02*
G75*
G03X10581640Y-9144000I-40640J0D01*
G01*
X10581640Y-9525000D02*
G75*
G03X10581640Y-9525000I-40640J0D01*
G01*
X10581640Y-9906000D02*
G75*
G03X10581640Y-9906000I-40640J0D01*
G01*
X10581640Y-10287000D02*
G75*
G03X10581640Y-10287000I-40640J0D01*
G01*
X10962640Y-10287000D02*
G75*
G03X10962640Y-10287000I-40640J0D01*
G01*
X11343640Y-7874000D02*
G75*
G03X11343640Y-7874000I-40640J0D01*
G01*
X11343640Y-11176000D02*
G75*
G03X11343640Y-11176000I-40640J0D01*
G01*
X11343640Y-11684000D02*
G75*
G03X11343640Y-11684000I-40640J0D01*
G01*
X11597640Y-7874000D02*
G75*
G03X11597640Y-7874000I-40640J0D01*
G01*
X11724640Y-10287000D02*
G75*
G03X11724640Y-10287000I-40640J0D01*
G01*
X11978640Y-7747000D02*
G75*
G03X11978640Y-7747000I-40640J0D01*
G01*
X11978640Y-11049000D02*
G75*
G03X11978640Y-11049000I-40640J0D01*
G01*
X11978640Y-11811000D02*
G75*
G03X11978640Y-11811000I-40640J0D01*
G01*
X12232640Y-11049000D02*
G75*
G03X12232640Y-11049000I-40640J0D01*
G01*
X12232640Y-11811000D02*
G75*
G03X12232640Y-11811000I-40640J0D01*
G01*
X12359640Y-10287000D02*
G75*
G03X12359640Y-10287000I-40640J0D01*
G01*
X12486640Y-11049000D02*
G75*
G03X12486640Y-11049000I-40640J0D01*
G01*
X12486640Y-11811000D02*
G75*
G03X12486640Y-11811000I-40640J0D01*
G01*
X12613640Y-6096000D02*
G75*
G03X12613640Y-6096000I-40640J0D01*
G01*
X12613640Y-6604000D02*
G75*
G03X12613640Y-6604000I-40640J0D01*
G01*
X12613640Y-6858000D02*
G75*
G03X12613640Y-6858000I-40640J0D01*
G01*
X12613640Y-7366000D02*
G75*
G03X12613640Y-7366000I-40640J0D01*
G01*
X12740640Y-7747000D02*
G75*
G03X12740640Y-7747000I-40640J0D01*
G01*
X12740640Y-11049000D02*
G75*
G03X12740640Y-11049000I-40640J0D01*
G01*
X12740640Y-11811000D02*
G75*
G03X12740640Y-11811000I-40640J0D01*
G01*
X12994640Y-11049000D02*
G75*
G03X12994640Y-11049000I-40640J0D01*
G01*
X12994640Y-11811000D02*
G75*
G03X12994640Y-11811000I-40640J0D01*
G01*
X13121640Y-7874000D02*
G75*
G03X13121640Y-7874000I-40640J0D01*
G01*
X13121640Y-10287000D02*
G75*
G03X13121640Y-10287000I-40640J0D01*
G01*
X13248640Y-11049000D02*
G75*
G03X13248640Y-11049000I-40640J0D01*
G01*
X13248640Y-11811000D02*
G75*
G03X13248640Y-11811000I-40640J0D01*
G01*
X13502640Y-11049000D02*
G75*
G03X13502640Y-11049000I-40640J0D01*
G01*
X13502640Y-11811000D02*
G75*
G03X13502640Y-11811000I-40640J0D01*
G01*
X13629640Y-7874000D02*
G75*
G03X13629640Y-7874000I-40640J0D01*
G01*
X14518640Y-11049000D02*
G75*
G03X14518640Y-11049000I-40640J0D01*
G01*
X14518640Y-11811000D02*
G75*
G03X14518640Y-11811000I-40640J0D01*
G01*
X14772640Y-11049000D02*
G75*
G03X14772640Y-11049000I-40640J0D01*
G01*
X14772640Y-11811000D02*
G75*
G03X14772640Y-11811000I-40640J0D01*
G01*
X14899640Y-7747000D02*
G75*
G03X14899640Y-7747000I-40640J0D01*
G01*
X14899640Y-8128000D02*
G75*
G03X14899640Y-8128000I-40640J0D01*
G01*
X14899640Y-8509000D02*
G75*
G03X14899640Y-8509000I-40640J0D01*
G01*
X14899640Y-8890000D02*
G75*
G03X14899640Y-8890000I-40640J0D01*
G01*
X14899640Y-9271000D02*
G75*
G03X14899640Y-9271000I-40640J0D01*
G01*
X15026640Y-11049000D02*
G75*
G03X15026640Y-11049000I-40640J0D01*
G01*
X15026640Y-11811000D02*
G75*
G03X15026640Y-11811000I-40640J0D01*
G01*
X15280640Y-11049000D02*
G75*
G03X15280640Y-11049000I-40640J0D01*
G01*
X15280640Y-11811000D02*
G75*
G03X15280640Y-11811000I-40640J0D01*
G01*
X15534640Y-11049000D02*
G75*
G03X15534640Y-11049000I-40640J0D01*
G01*
X15534640Y-11811000D02*
G75*
G03X15534640Y-11811000I-40640J0D01*
G01*
X15661640Y-7747000D02*
G75*
G03X15661640Y-7747000I-40640J0D01*
G01*
X15661640Y-8128000D02*
G75*
G03X15661640Y-8128000I-40640J0D01*
G01*
X15661640Y-8509000D02*
G75*
G03X15661640Y-8509000I-40640J0D01*
G01*
X15661640Y-8890000D02*
G75*
G03X15661640Y-8890000I-40640J0D01*
G01*
X15661640Y-9271000D02*
G75*
G03X15661640Y-9271000I-40640J0D01*
G01*
X15788640Y-11049000D02*
G75*
G03X15788640Y-11049000I-40640J0D01*
G01*
X15788640Y-11811000D02*
G75*
G03X15788640Y-11811000I-40640J0D01*
G01*
X16042640Y-11049000D02*
G75*
G03X16042640Y-11049000I-40640J0D01*
G01*
X16042640Y-11811000D02*
G75*
G03X16042640Y-11811000I-40640J0D01*
G01*
X16677640Y-11176000D02*
G75*
G03X16677640Y-11176000I-40640J0D01*
G01*
X16677640Y-11684000D02*
G75*
G03X16677640Y-11684000I-40640J0D01*
G01*
X16931640Y-7874000D02*
G75*
G03X16931640Y-7874000I-40640J0D01*
G01*
X17439640Y-7874000D02*
G75*
G03X17439640Y-7874000I-40640J0D01*
G01*
X17439640Y-10287000D02*
G75*
G03X17439640Y-10287000I-40640J0D01*
G01*
X17439640Y-10795000D02*
G75*
G03X17439640Y-10795000I-40640J0D01*
G01*
X17439640Y-11176000D02*
G75*
G03X17439640Y-11176000I-40640J0D01*
G01*
X17566640Y-11684000D02*
G75*
G03X17566640Y-11684000I-40640J0D01*
G01*
X17566640Y-12192000D02*
G75*
G03X17566640Y-12192000I-40640J0D01*
G01*
X17947640Y-6096000D02*
G75*
G03X17947640Y-6096000I-40640J0D01*
G01*
X17947640Y-6604000D02*
G75*
G03X17947640Y-6604000I-40640J0D01*
G01*
X17947640Y-6858000D02*
G75*
G03X17947640Y-6858000I-40640J0D01*
G01*
X17947640Y-7366000D02*
G75*
G03X17947640Y-7366000I-40640J0D01*
G01*
X18074640Y-11684000D02*
G75*
G03X18074640Y-11684000I-40640J0D01*
G01*
X18074640Y-12192000D02*
G75*
G03X18074640Y-12192000I-40640J0D01*
G01*
X18201640Y-10287000D02*
G75*
G03X18201640Y-10287000I-40640J0D01*
G01*
X18201640Y-10795000D02*
G75*
G03X18201640Y-10795000I-40640J0D01*
G01*
X18201640Y-11176000D02*
G75*
G03X18201640Y-11176000I-40640J0D01*
G01*
X18455640Y-7747000D02*
G75*
G03X18455640Y-7747000I-40640J0D01*
G01*
X18455640Y-8128000D02*
G75*
G03X18455640Y-8128000I-40640J0D01*
G01*
X20297140Y-8699500D02*
G75*
G03X20297140Y-8699500I-40640J0D01*
G01*
X20297140Y-9207500D02*
G75*
G03X20297140Y-9207500I-40640J0D01*
G01*
X20360640Y-10795000D02*
G75*
G03X20360640Y-10795000I-40640J0D01*
G01*
X20741640Y-7874000D02*
G75*
G03X20741640Y-7874000I-40640J0D01*
G01*
X20741640Y-8572500D02*
G75*
G03X20741640Y-8572500I-40640J0D01*
G01*
X20741640Y-9334500D02*
G75*
G03X20741640Y-9334500I-40640J0D01*
G01*
X20741640Y-10795000D02*
G75*
G03X20741640Y-10795000I-40640J0D01*
G01*
X20995640Y-7874000D02*
G75*
G03X20995640Y-7874000I-40640J0D01*
G01*
X21567140Y-8001000D02*
G75*
G03X21567140Y-8001000I-40640J0D01*
G01*
X21948140Y-8001000D02*
G75*
G03X21948140Y-8001000I-40640J0D01*
G01*
X12128500Y-12210000D02*
X12128500Y-12301000D01*
X12083000Y-12255500D02*
X12174000Y-12255500D01*
X12382500Y-12210000D02*
X12382500Y-12301000D01*
X12337000Y-12255500D02*
X12428000Y-12255500D01*
X12636500Y-12210000D02*
X12636500Y-12301000D01*
X12591000Y-12255500D02*
X12682000Y-12255500D01*
X12890500Y-12210000D02*
X12890500Y-12301000D01*
X12845000Y-12255500D02*
X12936000Y-12255500D01*
X13144500Y-12210000D02*
X13144500Y-12301000D01*
X13099000Y-12255500D02*
X13190000Y-12255500D01*
X13398500Y-12210000D02*
X13398500Y-12301000D01*
X13353000Y-12255500D02*
X13444000Y-12255500D01*
X13589000Y-10241500D02*
X13589000Y-10332500D01*
X13543500Y-10287000D02*
X13634500Y-10287000D01*
X13843000Y-10241500D02*
X13843000Y-10332500D01*
X13797500Y-10287000D02*
X13888500Y-10287000D01*
X14097000Y-10241500D02*
X14097000Y-10332500D01*
X14051500Y-10287000D02*
X14142500Y-10287000D01*
X14351000Y-10241500D02*
X14351000Y-10332500D01*
X14305500Y-10287000D02*
X14396500Y-10287000D01*
X16129000Y-10241500D02*
X16129000Y-10332500D01*
X16083500Y-10287000D02*
X16174500Y-10287000D01*
X16383000Y-10241500D02*
X16383000Y-10332500D01*
X16337500Y-10287000D02*
X16428500Y-10287000D01*
X16637000Y-10241500D02*
X16637000Y-10332500D01*
X16591500Y-10287000D02*
X16682500Y-10287000D01*
X16891000Y-10241500D02*
X16891000Y-10332500D01*
X16845500Y-10287000D02*
X16936500Y-10287000D01*
X8671356Y-9687356D02*
X8671356Y-9616644D01*
X8600644Y-9616644D01*
X8600644Y-9687356D01*
X8671356Y-9687356D01*
X8925356Y-9687356D02*
X8925356Y-9616644D01*
X8854644Y-9616644D01*
X8854644Y-9687356D01*
X8925356Y-9687356D01*
X9179356Y-9687356D02*
X9179356Y-9616644D01*
X9108644Y-9616644D01*
X9108644Y-9687356D01*
X9179356Y-9687356D01*
X11211356Y-9687356D02*
X11211356Y-9616644D01*
X11140644Y-9616644D01*
X11140644Y-9687356D01*
X11211356Y-9687356D01*
X11465356Y-9687356D02*
X11465356Y-9616644D01*
X11394644Y-9616644D01*
X11394644Y-9687356D01*
X11465356Y-9687356D01*
X11719356Y-9687356D02*
X11719356Y-9616644D01*
X11648644Y-9616644D01*
X11648644Y-9687356D01*
X11719356Y-9687356D01*
X13751356Y-9687356D02*
X13751356Y-9616644D01*
X13680644Y-9616644D01*
X13680644Y-9687356D01*
X13751356Y-9687356D01*
X14005356Y-9687356D02*
X14005356Y-9616644D01*
X13934644Y-9616644D01*
X13934644Y-9687356D01*
X14005356Y-9687356D01*
X14259356Y-9687356D02*
X14259356Y-9616644D01*
X14188644Y-9616644D01*
X14188644Y-9687356D01*
X14259356Y-9687356D01*
X16291356Y-9687356D02*
X16291356Y-9616644D01*
X16220644Y-9616644D01*
X16220644Y-9687356D01*
X16291356Y-9687356D01*
X16545356Y-9687356D02*
X16545356Y-9616644D01*
X16474644Y-9616644D01*
X16474644Y-9687356D01*
X16545356Y-9687356D01*
X16799356Y-9687356D02*
X16799356Y-9616644D01*
X16728644Y-9616644D01*
X16728644Y-9687356D01*
X16799356Y-9687356D01*
X18831356Y-9687356D02*
X18831356Y-9616644D01*
X18760644Y-9616644D01*
X18760644Y-9687356D01*
X18831356Y-9687356D01*
X18831356Y-12227356D02*
X18831356Y-12156644D01*
X18760644Y-12156644D01*
X18760644Y-12227356D01*
X18831356Y-12227356D01*
X19085356Y-9687356D02*
X19085356Y-9616644D01*
X19014644Y-9616644D01*
X19014644Y-9687356D01*
X19085356Y-9687356D01*
X19085356Y-12227356D02*
X19085356Y-12156644D01*
X19014644Y-12156644D01*
X19014644Y-12227356D01*
X19085356Y-12227356D01*
X19339356Y-9687356D02*
X19339356Y-9616644D01*
X19268644Y-9616644D01*
X19268644Y-9687356D01*
X19339356Y-9687356D01*
X19339356Y-12227356D02*
X19339356Y-12156644D01*
X19268644Y-12156644D01*
X19268644Y-12227356D01*
X19339356Y-12227356D01*
X21272500Y-10598150D02*
X21329650Y-10541000D01*
X21272500Y-10483850D01*
X21215350Y-10541000D01*
X21272500Y-10598150D01*
X21526500Y-10598150D02*
X21583650Y-10541000D01*
X21526500Y-10483850D01*
X21469350Y-10541000D01*
X21526500Y-10598150D01*
X21780500Y-10598150D02*
X21837650Y-10541000D01*
X21780500Y-10483850D01*
X21723350Y-10541000D01*
X21780500Y-10598150D01*
X8829000Y-7305000D02*
X8951000Y-7427000D01*
X8951000Y-7305000D02*
X8829000Y-7427000D01*
X8951000Y-7366000D02*
G75*
G03X8951000Y-7366000I-61000J0D01*
G01*
X10099000Y-7305000D02*
X10221000Y-7427000D01*
X10221000Y-7305000D02*
X10099000Y-7427000D01*
X10221000Y-7366000D02*
G75*
G03X10221000Y-7366000I-61000J0D01*
G01*
X11369000Y-7305000D02*
X11491000Y-7427000D01*
X11491000Y-7305000D02*
X11369000Y-7427000D01*
X11491000Y-7366000D02*
G75*
G03X11491000Y-7366000I-61000J0D01*
G01*
X13274000Y-7305000D02*
X13396000Y-7427000D01*
X13396000Y-7305000D02*
X13274000Y-7427000D01*
X13396000Y-7366000D02*
G75*
G03X13396000Y-7366000I-61000J0D01*
G01*
X14544000Y-7305000D02*
X14666000Y-7427000D01*
X14666000Y-7305000D02*
X14544000Y-7427000D01*
X14666000Y-7366000D02*
G75*
G03X14666000Y-7366000I-61000J0D01*
G01*
X15814000Y-7305000D02*
X15936000Y-7427000D01*
X15936000Y-7305000D02*
X15814000Y-7427000D01*
X15936000Y-7366000D02*
G75*
G03X15936000Y-7366000I-61000J0D01*
G01*
X17084000Y-7305000D02*
X17206000Y-7427000D01*
X17206000Y-7305000D02*
X17084000Y-7427000D01*
X17206000Y-7366000D02*
G75*
G03X17206000Y-7366000I-61000J0D01*
G01*
X18540500Y-6348500D02*
X18670500Y-6478500D01*
X18670500Y-6348500D02*
X18540500Y-6478500D01*
X18605500Y-6348500D02*
X18605500Y-6478500D01*
X18540500Y-6413500D02*
X18670500Y-6413500D01*
X18590500Y-7078500D02*
X18720500Y-7208500D01*
X18720500Y-7078500D02*
X18590500Y-7208500D01*
X18655500Y-7078500D02*
X18655500Y-7208500D01*
X18590500Y-7143500D02*
X18720500Y-7143500D01*
X19000500Y-5958500D02*
X19130500Y-6088500D01*
X19130500Y-5958500D02*
X19000500Y-6088500D01*
X19065500Y-5958500D02*
X19065500Y-6088500D01*
X19000500Y-6023500D02*
X19130500Y-6023500D01*
X19250500Y-6638500D02*
X19380500Y-6768500D01*
X19380500Y-6638500D02*
X19250500Y-6768500D01*
X19315500Y-6638500D02*
X19315500Y-6768500D01*
X19250500Y-6703500D02*
X19380500Y-6703500D01*
X19520500Y-6758500D02*
X19650500Y-6888500D01*
X19650500Y-6758500D02*
X19520500Y-6888500D01*
X19585500Y-6758500D02*
X19585500Y-6888500D01*
X19520500Y-6823500D02*
X19650500Y-6823500D01*
X8819000Y-6985000D02*
X8961000Y-7127000D01*
X8961000Y-6985000D02*
X8819000Y-7127000D01*
X8940205Y-7106205D02*
X8940205Y-7005795D01*
X8839795Y-7005795D01*
X8839795Y-7106205D01*
X8940205Y-7106205D01*
X10089000Y-6985000D02*
X10231000Y-7127000D01*
X10231000Y-6985000D02*
X10089000Y-7127000D01*
X10210205Y-7106205D02*
X10210205Y-7005795D01*
X10109795Y-7005795D01*
X10109795Y-7106205D01*
X10210205Y-7106205D01*
X11359000Y-6985000D02*
X11501000Y-7127000D01*
X11501000Y-6985000D02*
X11359000Y-7127000D01*
X11480205Y-7106205D02*
X11480205Y-7005795D01*
X11379795Y-7005795D01*
X11379795Y-7106205D01*
X11480205Y-7106205D01*
X13264000Y-6985000D02*
X13406000Y-7127000D01*
X13406000Y-6985000D02*
X13264000Y-7127000D01*
X13385205Y-7106205D02*
X13385205Y-7005795D01*
X13284795Y-7005795D01*
X13284795Y-7106205D01*
X13385205Y-7106205D01*
X14534000Y-6985000D02*
X14676000Y-7127000D01*
X14676000Y-6985000D02*
X14534000Y-7127000D01*
X14655205Y-7106205D02*
X14655205Y-7005795D01*
X14554795Y-7005795D01*
X14554795Y-7106205D01*
X14655205Y-7106205D01*
X15804000Y-6985000D02*
X15946000Y-7127000D01*
X15946000Y-6985000D02*
X15804000Y-7127000D01*
X15925205Y-7106205D02*
X15925205Y-7005795D01*
X15824795Y-7005795D01*
X15824795Y-7106205D01*
X15925205Y-7106205D01*
X17074000Y-6985000D02*
X17216000Y-7127000D01*
X17216000Y-6985000D02*
X17074000Y-7127000D01*
X17195205Y-7106205D02*
X17195205Y-7005795D01*
X17094795Y-7005795D01*
X17094795Y-7106205D01*
X17195205Y-7106205D01*
X8818500Y-6154500D02*
X8961500Y-6297500D01*
X8961500Y-6154500D02*
X8818500Y-6297500D01*
X8890000Y-6297500D02*
X8961500Y-6226000D01*
X8890000Y-6154500D01*
X8818500Y-6226000D01*
X8890000Y-6297500D01*
X10088500Y-6154500D02*
X10231500Y-6297500D01*
X10231500Y-6154500D02*
X10088500Y-6297500D01*
X10160000Y-6297500D02*
X10231500Y-6226000D01*
X10160000Y-6154500D01*
X10088500Y-6226000D01*
X10160000Y-6297500D01*
X11358500Y-6154500D02*
X11501500Y-6297500D01*
X11501500Y-6154500D02*
X11358500Y-6297500D01*
X11430000Y-6297500D02*
X11501500Y-6226000D01*
X11430000Y-6154500D01*
X11358500Y-6226000D01*
X11430000Y-6297500D01*
X13263500Y-6154500D02*
X13406500Y-6297500D01*
X13406500Y-6154500D02*
X13263500Y-6297500D01*
X13335000Y-6297500D02*
X13406500Y-6226000D01*
X13335000Y-6154500D01*
X13263500Y-6226000D01*
X13335000Y-6297500D01*
X14533500Y-6154500D02*
X14676500Y-6297500D01*
X14676500Y-6154500D02*
X14533500Y-6297500D01*
X14605000Y-6297500D02*
X14676500Y-6226000D01*
X14605000Y-6154500D01*
X14533500Y-6226000D01*
X14605000Y-6297500D01*
X15803500Y-6154500D02*
X15946500Y-6297500D01*
X15946500Y-6154500D02*
X15803500Y-6297500D01*
X15875000Y-6297500D02*
X15946500Y-6226000D01*
X15875000Y-6154500D01*
X15803500Y-6226000D01*
X15875000Y-6297500D01*
X17073500Y-6154500D02*
X17216500Y-6297500D01*
X17216500Y-6154500D02*
X17073500Y-6297500D01*
X17145000Y-6297500D02*
X17216500Y-6226000D01*
X17145000Y-6154500D01*
X17073500Y-6226000D01*
X17145000Y-6297500D01*
X8365000Y-8797000D02*
X8365000Y-9007000D01*
X8260000Y-8902000D02*
X8470000Y-8902000D01*
X8470000Y-8902000D02*
G75*
G03X8470000Y-8902000I-105000J0D01*
G01*
X9415000Y-8797000D02*
X9415000Y-9007000D01*
X9310000Y-8902000D02*
X9520000Y-8902000D01*
X9520000Y-8902000D02*
G75*
G03X9520000Y-8902000I-105000J0D01*
G01*
X10905000Y-8797000D02*
X10905000Y-9007000D01*
X10800000Y-8902000D02*
X11010000Y-8902000D01*
X11010000Y-8902000D02*
G75*
G03X11010000Y-8902000I-105000J0D01*
G01*
X11955000Y-8797000D02*
X11955000Y-9007000D01*
X11850000Y-8902000D02*
X12060000Y-8902000D01*
X12060000Y-8902000D02*
G75*
G03X12060000Y-8902000I-105000J0D01*
G01*
X13445000Y-8797000D02*
X13445000Y-9007000D01*
X13340000Y-8902000D02*
X13550000Y-8902000D01*
X13550000Y-8902000D02*
G75*
G03X13550000Y-8902000I-105000J0D01*
G01*
X14495000Y-8797000D02*
X14495000Y-9007000D01*
X14390000Y-8902000D02*
X14600000Y-8902000D01*
X14600000Y-8902000D02*
G75*
G03X14600000Y-8902000I-105000J0D01*
G01*
X15985000Y-8797000D02*
X15985000Y-9007000D01*
X15880000Y-8902000D02*
X16090000Y-8902000D01*
X16090000Y-8902000D02*
G75*
G03X16090000Y-8902000I-105000J0D01*
G01*
X17035000Y-8797000D02*
X17035000Y-9007000D01*
X16930000Y-8902000D02*
X17140000Y-8902000D01*
X17140000Y-8902000D02*
G75*
G03X17140000Y-8902000I-105000J0D01*
G01*
X18525000Y-8797000D02*
X18525000Y-9007000D01*
X18420000Y-8902000D02*
X18630000Y-8902000D01*
X18630000Y-8902000D02*
G75*
G03X18630000Y-8902000I-105000J0D01*
G01*
X18525000Y-11337000D02*
X18525000Y-11547000D01*
X18420000Y-11442000D02*
X18630000Y-11442000D01*
X18630000Y-11442000D02*
G75*
G03X18630000Y-11442000I-105000J0D01*
G01*
X19575000Y-8797000D02*
X19575000Y-9007000D01*
X19470000Y-8902000D02*
X19680000Y-8902000D01*
X19680000Y-8902000D02*
G75*
G03X19680000Y-8902000I-105000J0D01*
G01*
X19575000Y-11337000D02*
X19575000Y-11547000D01*
X19470000Y-11442000D02*
X19680000Y-11442000D01*
X19680000Y-11442000D02*
G75*
G03X19680000Y-11442000I-105000J0D01*
G01*
X10237783Y-10999783D02*
X10237783Y-10844218D01*
X10082218Y-10844218D01*
X10082218Y-10999783D01*
X10237783Y-10999783D01*
X10270000Y-10922000D02*
G75*
G03X10270000Y-10922000I-110000J0D01*
G01*
X10237783Y-11507782D02*
X10237783Y-11352217D01*
X10082218Y-11352217D01*
X10082218Y-11507782D01*
X10237783Y-11507782D01*
X10270000Y-11430000D02*
G75*
G03X10270000Y-11430000I-110000J0D01*
G01*
X10237783Y-12015782D02*
X10237783Y-11860217D01*
X10082218Y-11860217D01*
X10082218Y-12015782D01*
X10237783Y-12015782D01*
X10270000Y-11938000D02*
G75*
G03X10270000Y-11938000I-110000J0D01*
G01*
X20435783Y-7016782D02*
X20435783Y-6861217D01*
X20280218Y-6861217D01*
X20280218Y-7016782D01*
X20435783Y-7016782D01*
X20468000Y-6939000D02*
G75*
G03X20468000Y-6939000I-110000J0D01*
G01*
X20828000Y-6769000D02*
X20958000Y-6639000D01*
X20828000Y-6509000D01*
X20698000Y-6639000D01*
X20828000Y-6769000D01*
X20958000Y-6639000D02*
G75*
G03X20958000Y-6639000I-130000J0D01*
G01*
X20828000Y-7369000D02*
X20958000Y-7239000D01*
X20828000Y-7109000D01*
X20698000Y-7239000D01*
X20828000Y-7369000D01*
X20958000Y-7239000D02*
G75*
G03X20958000Y-7239000I-130000J0D01*
G01*
X21526500Y-8737600D02*
X21526500Y-9042400D01*
X21374100Y-8890000D02*
X21678900Y-8890000D01*
X21634264Y-8997764D02*
X21634264Y-8782236D01*
X21418736Y-8782236D01*
X21418736Y-8997764D01*
X21634264Y-8997764D01*
X8001000Y-6063000D02*
X8001000Y-6383000D01*
X7841000Y-6223000D02*
X8161000Y-6223000D01*
X8001000Y-6383000D02*
X8161000Y-6223000D01*
X8001000Y-6063000D01*
X7841000Y-6223000D01*
X8001000Y-6383000D01*
X8001000Y-12032000D02*
X8001000Y-12352000D01*
X7841000Y-12192000D02*
X8161000Y-12192000D01*
X8001000Y-12352000D02*
X8161000Y-12192000D01*
X8001000Y-12032000D01*
X7841000Y-12192000D01*
X8001000Y-12352000D01*
X21717000Y-6063000D02*
X21717000Y-6383000D01*
X21557000Y-6223000D02*
X21877000Y-6223000D01*
X21717000Y-6383000D02*
X21877000Y-6223000D01*
X21717000Y-6063000D01*
X21557000Y-6223000D01*
X21717000Y-6383000D01*
X21717000Y-12032000D02*
X21717000Y-12352000D01*
X21557000Y-12192000D02*
X21877000Y-12192000D01*
X21717000Y-12352000D02*
X21877000Y-12192000D01*
X21717000Y-12032000D01*
X21557000Y-12192000D01*
X21717000Y-12352000D01*
D13*
X7883928Y-13046214D02*
X7883928Y-12746214D01*
X7955357Y-12746214D01*
X7998214Y-12760500D01*
X8026786Y-12789071D01*
X8041071Y-12817643D01*
X8055357Y-12874786D01*
X8055357Y-12917643D01*
X8041071Y-12974786D01*
X8026786Y-13003357D01*
X7998214Y-13031929D01*
X7955357Y-13046214D01*
X7883928Y-13046214D01*
X8183928Y-13046214D02*
X8183928Y-12846214D01*
X8183928Y-12903357D02*
X8198214Y-12874786D01*
X8212500Y-12860500D01*
X8241071Y-12846214D01*
X8269643Y-12846214D01*
X8369643Y-13046214D02*
X8369643Y-12846214D01*
X8369643Y-12746214D02*
X8355357Y-12760500D01*
X8369643Y-12774786D01*
X8383928Y-12760500D01*
X8369643Y-12746214D01*
X8369643Y-12774786D01*
X8555357Y-13046214D02*
X8526786Y-13031929D01*
X8512500Y-13003357D01*
X8512500Y-12746214D01*
X8712500Y-13046214D02*
X8683929Y-13031929D01*
X8669643Y-13003357D01*
X8669643Y-12746214D01*
X9055357Y-13046214D02*
X9055357Y-12746214D01*
X9155357Y-12960500D01*
X9255357Y-12746214D01*
X9255357Y-13046214D01*
X9526786Y-13046214D02*
X9526786Y-12889071D01*
X9512500Y-12860500D01*
X9483929Y-12846214D01*
X9426786Y-12846214D01*
X9398214Y-12860500D01*
X9526786Y-13031929D02*
X9498214Y-13046214D01*
X9426786Y-13046214D01*
X9398214Y-13031929D01*
X9383929Y-13003357D01*
X9383929Y-12974786D01*
X9398214Y-12946214D01*
X9426786Y-12931929D01*
X9498214Y-12931929D01*
X9526786Y-12917643D01*
X9669643Y-12846214D02*
X9669643Y-13146214D01*
X9669643Y-12860500D02*
X9698214Y-12846214D01*
X9755357Y-12846214D01*
X9783929Y-12860500D01*
X9798214Y-12874786D01*
X9812500Y-12903357D01*
X9812500Y-12989071D01*
X9798214Y-13017643D01*
X9783929Y-13031929D01*
X9755357Y-13046214D01*
X9698214Y-13046214D01*
X9669643Y-13031929D01*
X9941071Y-13017643D02*
X9955357Y-13031929D01*
X9941071Y-13046214D01*
X9926786Y-13031929D01*
X9941071Y-13017643D01*
X9941071Y-13046214D01*
X9941071Y-12860500D02*
X9955357Y-12874786D01*
X9941071Y-12889071D01*
X9926786Y-12874786D01*
X9941071Y-12860500D01*
X9941071Y-12889071D01*
X7557500Y-13513000D02*
X7612500Y-13568000D01*
X7612500Y-13513000D02*
X7557500Y-13568000D01*
X7941071Y-13376214D02*
X7969643Y-13376214D01*
X7998214Y-13390500D01*
X8012500Y-13404786D01*
X8026786Y-13433357D01*
X8041071Y-13490500D01*
X8041071Y-13561929D01*
X8026786Y-13619071D01*
X8012500Y-13647643D01*
X7998214Y-13661929D01*
X7969643Y-13676214D01*
X7941071Y-13676214D01*
X7912500Y-13661929D01*
X7898214Y-13647643D01*
X7883928Y-13619071D01*
X7869643Y-13561929D01*
X7869643Y-13490500D01*
X7883928Y-13433357D01*
X7898214Y-13404786D01*
X7912500Y-13390500D01*
X7941071Y-13376214D01*
X8169643Y-13647643D02*
X8183928Y-13661929D01*
X8169643Y-13676214D01*
X8155357Y-13661929D01*
X8169643Y-13647643D01*
X8169643Y-13676214D01*
X8455357Y-13376214D02*
X8312500Y-13376214D01*
X8298214Y-13519071D01*
X8312500Y-13504786D01*
X8341071Y-13490500D01*
X8412500Y-13490500D01*
X8441071Y-13504786D01*
X8455357Y-13519071D01*
X8469643Y-13547643D01*
X8469643Y-13619071D01*
X8455357Y-13647643D01*
X8441071Y-13661929D01*
X8412500Y-13676214D01*
X8341071Y-13676214D01*
X8312500Y-13661929D01*
X8298214Y-13647643D01*
X8741071Y-13376214D02*
X8598214Y-13376214D01*
X8583929Y-13519071D01*
X8598214Y-13504786D01*
X8626786Y-13490500D01*
X8698214Y-13490500D01*
X8726786Y-13504786D01*
X8741071Y-13519071D01*
X8755357Y-13547643D01*
X8755357Y-13619071D01*
X8741071Y-13647643D01*
X8726786Y-13661929D01*
X8698214Y-13676214D01*
X8626786Y-13676214D01*
X8598214Y-13661929D01*
X8583929Y-13647643D01*
X8883929Y-13676214D02*
X8883929Y-13476214D01*
X8883929Y-13504786D02*
X8898214Y-13490500D01*
X8926786Y-13476214D01*
X8969643Y-13476214D01*
X8998214Y-13490500D01*
X9012500Y-13519071D01*
X9012500Y-13676214D01*
X9012500Y-13519071D02*
X9026786Y-13490500D01*
X9055357Y-13476214D01*
X9098214Y-13476214D01*
X9126786Y-13490500D01*
X9141071Y-13519071D01*
X9141071Y-13676214D01*
X9283929Y-13676214D02*
X9283929Y-13476214D01*
X9283929Y-13504786D02*
X9298214Y-13490500D01*
X9326786Y-13476214D01*
X9369643Y-13476214D01*
X9398214Y-13490500D01*
X9412500Y-13519071D01*
X9412500Y-13676214D01*
X9412500Y-13519071D02*
X9426786Y-13490500D01*
X9455357Y-13476214D01*
X9498214Y-13476214D01*
X9526786Y-13490500D01*
X9541071Y-13519071D01*
X9541071Y-13676214D01*
X10126786Y-13361929D02*
X9869643Y-13747643D01*
X10512500Y-13376214D02*
X10541071Y-13376214D01*
X10569643Y-13390500D01*
X10583928Y-13404786D01*
X10598214Y-13433357D01*
X10612500Y-13490500D01*
X10612500Y-13561929D01*
X10598214Y-13619071D01*
X10583928Y-13647643D01*
X10569643Y-13661929D01*
X10541071Y-13676214D01*
X10512500Y-13676214D01*
X10483928Y-13661929D01*
X10469643Y-13647643D01*
X10455357Y-13619071D01*
X10441071Y-13561929D01*
X10441071Y-13490500D01*
X10455357Y-13433357D01*
X10469643Y-13404786D01*
X10483928Y-13390500D01*
X10512500Y-13376214D01*
X10741071Y-13647643D02*
X10755357Y-13661929D01*
X10741071Y-13676214D01*
X10726786Y-13661929D01*
X10741071Y-13647643D01*
X10741071Y-13676214D01*
X10941071Y-13376214D02*
X10969643Y-13376214D01*
X10998214Y-13390500D01*
X11012500Y-13404786D01*
X11026786Y-13433357D01*
X11041071Y-13490500D01*
X11041071Y-13561929D01*
X11026786Y-13619071D01*
X11012500Y-13647643D01*
X10998214Y-13661929D01*
X10969643Y-13676214D01*
X10941071Y-13676214D01*
X10912500Y-13661929D01*
X10898214Y-13647643D01*
X10883928Y-13619071D01*
X10869643Y-13561929D01*
X10869643Y-13490500D01*
X10883928Y-13433357D01*
X10898214Y-13404786D01*
X10912500Y-13390500D01*
X10941071Y-13376214D01*
X11155357Y-13404786D02*
X11169643Y-13390500D01*
X11198214Y-13376214D01*
X11269643Y-13376214D01*
X11298214Y-13390500D01*
X11312500Y-13404786D01*
X11326785Y-13433357D01*
X11326785Y-13461929D01*
X11312500Y-13504786D01*
X11141071Y-13676214D01*
X11326785Y-13676214D01*
X11441071Y-13404786D02*
X11455357Y-13390500D01*
X11483928Y-13376214D01*
X11555357Y-13376214D01*
X11583928Y-13390500D01*
X11598214Y-13404786D01*
X11612500Y-13433357D01*
X11612500Y-13461929D01*
X11598214Y-13504786D01*
X11426785Y-13676214D01*
X11612500Y-13676214D01*
X11726786Y-13376214D02*
X11726786Y-13433357D01*
X11841071Y-13376214D02*
X11841071Y-13433357D01*
X12283928Y-13790500D02*
X12269643Y-13776214D01*
X12241071Y-13733357D01*
X12226785Y-13704786D01*
X12212500Y-13661929D01*
X12198214Y-13590500D01*
X12198214Y-13533357D01*
X12212500Y-13461929D01*
X12226785Y-13419071D01*
X12241071Y-13390500D01*
X12269643Y-13347643D01*
X12283928Y-13333357D01*
X12441071Y-13504786D02*
X12412500Y-13490500D01*
X12398214Y-13476214D01*
X12383928Y-13447643D01*
X12383928Y-13433357D01*
X12398214Y-13404786D01*
X12412500Y-13390500D01*
X12441071Y-13376214D01*
X12498214Y-13376214D01*
X12526785Y-13390500D01*
X12541071Y-13404786D01*
X12555357Y-13433357D01*
X12555357Y-13447643D01*
X12541071Y-13476214D01*
X12526785Y-13490500D01*
X12498214Y-13504786D01*
X12441071Y-13504786D01*
X12412500Y-13519071D01*
X12398214Y-13533357D01*
X12383928Y-13561929D01*
X12383928Y-13619071D01*
X12398214Y-13647643D01*
X12412500Y-13661929D01*
X12441071Y-13676214D01*
X12498214Y-13676214D01*
X12526785Y-13661929D01*
X12541071Y-13647643D01*
X12555357Y-13619071D01*
X12555357Y-13561929D01*
X12541071Y-13533357D01*
X12526785Y-13519071D01*
X12498214Y-13504786D01*
X12912500Y-13676214D02*
X12912500Y-13376214D01*
X13041071Y-13676214D02*
X13041071Y-13519071D01*
X13026785Y-13490500D01*
X12998214Y-13476214D01*
X12955357Y-13476214D01*
X12926785Y-13490500D01*
X12912500Y-13504786D01*
X13226785Y-13676214D02*
X13198214Y-13661929D01*
X13183928Y-13647643D01*
X13169643Y-13619071D01*
X13169643Y-13533357D01*
X13183928Y-13504786D01*
X13198214Y-13490500D01*
X13226785Y-13476214D01*
X13269643Y-13476214D01*
X13298214Y-13490500D01*
X13312500Y-13504786D01*
X13326785Y-13533357D01*
X13326785Y-13619071D01*
X13312500Y-13647643D01*
X13298214Y-13661929D01*
X13269643Y-13676214D01*
X13226785Y-13676214D01*
X13498214Y-13676214D02*
X13469643Y-13661929D01*
X13455357Y-13633357D01*
X13455357Y-13376214D01*
X13726786Y-13661929D02*
X13698214Y-13676214D01*
X13641071Y-13676214D01*
X13612500Y-13661929D01*
X13598214Y-13633357D01*
X13598214Y-13519071D01*
X13612500Y-13490500D01*
X13641071Y-13476214D01*
X13698214Y-13476214D01*
X13726786Y-13490500D01*
X13741071Y-13519071D01*
X13741071Y-13547643D01*
X13598214Y-13576214D01*
X13855357Y-13661929D02*
X13883928Y-13676214D01*
X13941071Y-13676214D01*
X13969643Y-13661929D01*
X13983928Y-13633357D01*
X13983928Y-13619071D01*
X13969643Y-13590500D01*
X13941071Y-13576214D01*
X13898214Y-13576214D01*
X13869643Y-13561929D01*
X13855357Y-13533357D01*
X13855357Y-13519071D01*
X13869643Y-13490500D01*
X13898214Y-13476214D01*
X13941071Y-13476214D01*
X13969643Y-13490500D01*
X14083928Y-13790500D02*
X14098214Y-13776214D01*
X14126786Y-13733357D01*
X14141071Y-13704786D01*
X14155357Y-13661929D01*
X14169643Y-13590500D01*
X14169643Y-13533357D01*
X14155357Y-13461929D01*
X14141071Y-13419071D01*
X14126786Y-13390500D01*
X14098214Y-13347643D01*
X14083928Y-13333357D01*
X7612500Y-13936500D02*
G75*
G03X7612500Y-13936500I-40640J0D01*
G01*
X7941071Y-13772214D02*
X7969643Y-13772214D01*
X7998214Y-13786500D01*
X8012500Y-13800786D01*
X8026786Y-13829357D01*
X8041071Y-13886500D01*
X8041071Y-13957929D01*
X8026786Y-14015071D01*
X8012500Y-14043643D01*
X7998214Y-14057929D01*
X7969643Y-14072214D01*
X7941071Y-14072214D01*
X7912500Y-14057929D01*
X7898214Y-14043643D01*
X7883928Y-14015071D01*
X7869643Y-13957929D01*
X7869643Y-13886500D01*
X7883928Y-13829357D01*
X7898214Y-13800786D01*
X7912500Y-13786500D01*
X7941071Y-13772214D01*
X8169643Y-14043643D02*
X8183928Y-14057929D01*
X8169643Y-14072214D01*
X8155357Y-14057929D01*
X8169643Y-14043643D01*
X8169643Y-14072214D01*
X8355357Y-13900786D02*
X8326786Y-13886500D01*
X8312500Y-13872214D01*
X8298214Y-13843643D01*
X8298214Y-13829357D01*
X8312500Y-13800786D01*
X8326786Y-13786500D01*
X8355357Y-13772214D01*
X8412500Y-13772214D01*
X8441071Y-13786500D01*
X8455357Y-13800786D01*
X8469643Y-13829357D01*
X8469643Y-13843643D01*
X8455357Y-13872214D01*
X8441071Y-13886500D01*
X8412500Y-13900786D01*
X8355357Y-13900786D01*
X8326786Y-13915071D01*
X8312500Y-13929357D01*
X8298214Y-13957929D01*
X8298214Y-14015071D01*
X8312500Y-14043643D01*
X8326786Y-14057929D01*
X8355357Y-14072214D01*
X8412500Y-14072214D01*
X8441071Y-14057929D01*
X8455357Y-14043643D01*
X8469643Y-14015071D01*
X8469643Y-13957929D01*
X8455357Y-13929357D01*
X8441071Y-13915071D01*
X8412500Y-13900786D01*
X8755357Y-14072214D02*
X8583929Y-14072214D01*
X8669643Y-14072214D02*
X8669643Y-13772214D01*
X8641071Y-13815071D01*
X8612500Y-13843643D01*
X8583929Y-13857929D01*
X8883929Y-14072214D02*
X8883929Y-13872214D01*
X8883929Y-13900786D02*
X8898214Y-13886500D01*
X8926786Y-13872214D01*
X8969643Y-13872214D01*
X8998214Y-13886500D01*
X9012500Y-13915071D01*
X9012500Y-14072214D01*
X9012500Y-13915071D02*
X9026786Y-13886500D01*
X9055357Y-13872214D01*
X9098214Y-13872214D01*
X9126786Y-13886500D01*
X9141071Y-13915071D01*
X9141071Y-14072214D01*
X9283929Y-14072214D02*
X9283929Y-13872214D01*
X9283929Y-13900786D02*
X9298214Y-13886500D01*
X9326786Y-13872214D01*
X9369643Y-13872214D01*
X9398214Y-13886500D01*
X9412500Y-13915071D01*
X9412500Y-14072214D01*
X9412500Y-13915071D02*
X9426786Y-13886500D01*
X9455357Y-13872214D01*
X9498214Y-13872214D01*
X9526786Y-13886500D01*
X9541071Y-13915071D01*
X9541071Y-14072214D01*
X10126786Y-13757929D02*
X9869643Y-14143643D01*
X10512500Y-13772214D02*
X10541071Y-13772214D01*
X10569643Y-13786500D01*
X10583928Y-13800786D01*
X10598214Y-13829357D01*
X10612500Y-13886500D01*
X10612500Y-13957929D01*
X10598214Y-14015071D01*
X10583928Y-14043643D01*
X10569643Y-14057929D01*
X10541071Y-14072214D01*
X10512500Y-14072214D01*
X10483928Y-14057929D01*
X10469643Y-14043643D01*
X10455357Y-14015071D01*
X10441071Y-13957929D01*
X10441071Y-13886500D01*
X10455357Y-13829357D01*
X10469643Y-13800786D01*
X10483928Y-13786500D01*
X10512500Y-13772214D01*
X10741071Y-14043643D02*
X10755357Y-14057929D01*
X10741071Y-14072214D01*
X10726786Y-14057929D01*
X10741071Y-14043643D01*
X10741071Y-14072214D01*
X10941071Y-13772214D02*
X10969643Y-13772214D01*
X10998214Y-13786500D01*
X11012500Y-13800786D01*
X11026786Y-13829357D01*
X11041071Y-13886500D01*
X11041071Y-13957929D01*
X11026786Y-14015071D01*
X11012500Y-14043643D01*
X10998214Y-14057929D01*
X10969643Y-14072214D01*
X10941071Y-14072214D01*
X10912500Y-14057929D01*
X10898214Y-14043643D01*
X10883928Y-14015071D01*
X10869643Y-13957929D01*
X10869643Y-13886500D01*
X10883928Y-13829357D01*
X10898214Y-13800786D01*
X10912500Y-13786500D01*
X10941071Y-13772214D01*
X11141071Y-13772214D02*
X11326785Y-13772214D01*
X11226785Y-13886500D01*
X11269643Y-13886500D01*
X11298214Y-13900786D01*
X11312500Y-13915071D01*
X11326785Y-13943643D01*
X11326785Y-14015071D01*
X11312500Y-14043643D01*
X11298214Y-14057929D01*
X11269643Y-14072214D01*
X11183928Y-14072214D01*
X11155357Y-14057929D01*
X11141071Y-14043643D01*
X11441071Y-13800786D02*
X11455357Y-13786500D01*
X11483928Y-13772214D01*
X11555357Y-13772214D01*
X11583928Y-13786500D01*
X11598214Y-13800786D01*
X11612500Y-13829357D01*
X11612500Y-13857929D01*
X11598214Y-13900786D01*
X11426785Y-14072214D01*
X11612500Y-14072214D01*
X11726786Y-13772214D02*
X11726786Y-13829357D01*
X11841071Y-13772214D02*
X11841071Y-13829357D01*
X12283928Y-14186500D02*
X12269643Y-14172214D01*
X12241071Y-14129357D01*
X12226785Y-14100786D01*
X12212500Y-14057929D01*
X12198214Y-13986500D01*
X12198214Y-13929357D01*
X12212500Y-13857929D01*
X12226785Y-13815071D01*
X12241071Y-13786500D01*
X12269643Y-13743643D01*
X12283928Y-13729357D01*
X12555357Y-14072214D02*
X12383928Y-14072214D01*
X12469643Y-14072214D02*
X12469643Y-13772214D01*
X12441071Y-13815071D01*
X12412500Y-13843643D01*
X12383928Y-13857929D01*
X12741071Y-13772214D02*
X12769643Y-13772214D01*
X12798214Y-13786500D01*
X12812500Y-13800786D01*
X12826785Y-13829357D01*
X12841071Y-13886500D01*
X12841071Y-13957929D01*
X12826785Y-14015071D01*
X12812500Y-14043643D01*
X12798214Y-14057929D01*
X12769643Y-14072214D01*
X12741071Y-14072214D01*
X12712500Y-14057929D01*
X12698214Y-14043643D01*
X12683928Y-14015071D01*
X12669643Y-13957929D01*
X12669643Y-13886500D01*
X12683928Y-13829357D01*
X12698214Y-13800786D01*
X12712500Y-13786500D01*
X12741071Y-13772214D01*
X12955357Y-13800786D02*
X12969643Y-13786500D01*
X12998214Y-13772214D01*
X13069643Y-13772214D01*
X13098214Y-13786500D01*
X13112500Y-13800786D01*
X13126785Y-13829357D01*
X13126785Y-13857929D01*
X13112500Y-13900786D01*
X12941071Y-14072214D01*
X13126785Y-14072214D01*
X13483928Y-14072214D02*
X13483928Y-13772214D01*
X13612500Y-14072214D02*
X13612500Y-13915071D01*
X13598214Y-13886500D01*
X13569643Y-13872214D01*
X13526785Y-13872214D01*
X13498214Y-13886500D01*
X13483928Y-13900786D01*
X13798214Y-14072214D02*
X13769643Y-14057929D01*
X13755357Y-14043643D01*
X13741071Y-14015071D01*
X13741071Y-13929357D01*
X13755357Y-13900786D01*
X13769643Y-13886500D01*
X13798214Y-13872214D01*
X13841071Y-13872214D01*
X13869643Y-13886500D01*
X13883928Y-13900786D01*
X13898214Y-13929357D01*
X13898214Y-14015071D01*
X13883928Y-14043643D01*
X13869643Y-14057929D01*
X13841071Y-14072214D01*
X13798214Y-14072214D01*
X14069643Y-14072214D02*
X14041071Y-14057929D01*
X14026786Y-14029357D01*
X14026786Y-13772214D01*
X14298214Y-14057929D02*
X14269643Y-14072214D01*
X14212500Y-14072214D01*
X14183928Y-14057929D01*
X14169643Y-14029357D01*
X14169643Y-13915071D01*
X14183928Y-13886500D01*
X14212500Y-13872214D01*
X14269643Y-13872214D01*
X14298214Y-13886500D01*
X14312500Y-13915071D01*
X14312500Y-13943643D01*
X14169643Y-13972214D01*
X14426786Y-14057929D02*
X14455357Y-14072214D01*
X14512500Y-14072214D01*
X14541071Y-14057929D01*
X14555357Y-14029357D01*
X14555357Y-14015071D01*
X14541071Y-13986500D01*
X14512500Y-13972214D01*
X14469643Y-13972214D01*
X14441071Y-13957929D01*
X14426786Y-13929357D01*
X14426786Y-13915071D01*
X14441071Y-13886500D01*
X14469643Y-13872214D01*
X14512500Y-13872214D01*
X14541071Y-13886500D01*
X14655357Y-14186500D02*
X14669643Y-14172214D01*
X14698214Y-14129357D01*
X14712500Y-14100786D01*
X14726786Y-14057929D01*
X14741071Y-13986500D01*
X14741071Y-13929357D01*
X14726786Y-13857929D01*
X14712500Y-13815071D01*
X14698214Y-13786500D01*
X14669643Y-13743643D01*
X14655357Y-13729357D01*
X7567000Y-14287000D02*
X7567000Y-14378000D01*
X7521500Y-14332500D02*
X7612500Y-14332500D01*
X7941071Y-14168214D02*
X7969643Y-14168214D01*
X7998214Y-14182500D01*
X8012500Y-14196786D01*
X8026786Y-14225357D01*
X8041071Y-14282500D01*
X8041071Y-14353929D01*
X8026786Y-14411071D01*
X8012500Y-14439643D01*
X7998214Y-14453929D01*
X7969643Y-14468214D01*
X7941071Y-14468214D01*
X7912500Y-14453929D01*
X7898214Y-14439643D01*
X7883928Y-14411071D01*
X7869643Y-14353929D01*
X7869643Y-14282500D01*
X7883928Y-14225357D01*
X7898214Y-14196786D01*
X7912500Y-14182500D01*
X7941071Y-14168214D01*
X8169643Y-14439643D02*
X8183928Y-14453929D01*
X8169643Y-14468214D01*
X8155357Y-14453929D01*
X8169643Y-14439643D01*
X8169643Y-14468214D01*
X8326786Y-14468214D02*
X8383928Y-14468214D01*
X8412500Y-14453929D01*
X8426786Y-14439643D01*
X8455357Y-14396786D01*
X8469643Y-14339643D01*
X8469643Y-14225357D01*
X8455357Y-14196786D01*
X8441071Y-14182500D01*
X8412500Y-14168214D01*
X8355357Y-14168214D01*
X8326786Y-14182500D01*
X8312500Y-14196786D01*
X8298214Y-14225357D01*
X8298214Y-14296786D01*
X8312500Y-14325357D01*
X8326786Y-14339643D01*
X8355357Y-14353929D01*
X8412500Y-14353929D01*
X8441071Y-14339643D01*
X8455357Y-14325357D01*
X8469643Y-14296786D01*
X8755357Y-14468214D02*
X8583929Y-14468214D01*
X8669643Y-14468214D02*
X8669643Y-14168214D01*
X8641071Y-14211071D01*
X8612500Y-14239643D01*
X8583929Y-14253929D01*
X8883929Y-14468214D02*
X8883929Y-14268214D01*
X8883929Y-14296786D02*
X8898214Y-14282500D01*
X8926786Y-14268214D01*
X8969643Y-14268214D01*
X8998214Y-14282500D01*
X9012500Y-14311071D01*
X9012500Y-14468214D01*
X9012500Y-14311071D02*
X9026786Y-14282500D01*
X9055357Y-14268214D01*
X9098214Y-14268214D01*
X9126786Y-14282500D01*
X9141071Y-14311071D01*
X9141071Y-14468214D01*
X9283929Y-14468214D02*
X9283929Y-14268214D01*
X9283929Y-14296786D02*
X9298214Y-14282500D01*
X9326786Y-14268214D01*
X9369643Y-14268214D01*
X9398214Y-14282500D01*
X9412500Y-14311071D01*
X9412500Y-14468214D01*
X9412500Y-14311071D02*
X9426786Y-14282500D01*
X9455357Y-14268214D01*
X9498214Y-14268214D01*
X9526786Y-14282500D01*
X9541071Y-14311071D01*
X9541071Y-14468214D01*
X10126786Y-14153929D02*
X9869643Y-14539643D01*
X10512500Y-14168214D02*
X10541071Y-14168214D01*
X10569643Y-14182500D01*
X10583928Y-14196786D01*
X10598214Y-14225357D01*
X10612500Y-14282500D01*
X10612500Y-14353929D01*
X10598214Y-14411071D01*
X10583928Y-14439643D01*
X10569643Y-14453929D01*
X10541071Y-14468214D01*
X10512500Y-14468214D01*
X10483928Y-14453929D01*
X10469643Y-14439643D01*
X10455357Y-14411071D01*
X10441071Y-14353929D01*
X10441071Y-14282500D01*
X10455357Y-14225357D01*
X10469643Y-14196786D01*
X10483928Y-14182500D01*
X10512500Y-14168214D01*
X10741071Y-14439643D02*
X10755357Y-14453929D01*
X10741071Y-14468214D01*
X10726786Y-14453929D01*
X10741071Y-14439643D01*
X10741071Y-14468214D01*
X10941071Y-14168214D02*
X10969643Y-14168214D01*
X10998214Y-14182500D01*
X11012500Y-14196786D01*
X11026786Y-14225357D01*
X11041071Y-14282500D01*
X11041071Y-14353929D01*
X11026786Y-14411071D01*
X11012500Y-14439643D01*
X10998214Y-14453929D01*
X10969643Y-14468214D01*
X10941071Y-14468214D01*
X10912500Y-14453929D01*
X10898214Y-14439643D01*
X10883928Y-14411071D01*
X10869643Y-14353929D01*
X10869643Y-14282500D01*
X10883928Y-14225357D01*
X10898214Y-14196786D01*
X10912500Y-14182500D01*
X10941071Y-14168214D01*
X11141071Y-14168214D02*
X11326785Y-14168214D01*
X11226785Y-14282500D01*
X11269643Y-14282500D01*
X11298214Y-14296786D01*
X11312500Y-14311071D01*
X11326785Y-14339643D01*
X11326785Y-14411071D01*
X11312500Y-14439643D01*
X11298214Y-14453929D01*
X11269643Y-14468214D01*
X11183928Y-14468214D01*
X11155357Y-14453929D01*
X11141071Y-14439643D01*
X11583928Y-14168214D02*
X11526785Y-14168214D01*
X11498214Y-14182500D01*
X11483928Y-14196786D01*
X11455357Y-14239643D01*
X11441071Y-14296786D01*
X11441071Y-14411071D01*
X11455357Y-14439643D01*
X11469643Y-14453929D01*
X11498214Y-14468214D01*
X11555357Y-14468214D01*
X11583928Y-14453929D01*
X11598214Y-14439643D01*
X11612500Y-14411071D01*
X11612500Y-14339643D01*
X11598214Y-14311071D01*
X11583928Y-14296786D01*
X11555357Y-14282500D01*
X11498214Y-14282500D01*
X11469643Y-14296786D01*
X11455357Y-14311071D01*
X11441071Y-14339643D01*
X11726786Y-14168214D02*
X11726786Y-14225357D01*
X11841071Y-14168214D02*
X11841071Y-14225357D01*
X12283928Y-14582500D02*
X12269643Y-14568214D01*
X12241071Y-14525357D01*
X12226785Y-14496786D01*
X12212500Y-14453929D01*
X12198214Y-14382500D01*
X12198214Y-14325357D01*
X12212500Y-14253929D01*
X12226785Y-14211071D01*
X12241071Y-14182500D01*
X12269643Y-14139643D01*
X12283928Y-14125357D01*
X12555357Y-14468214D02*
X12383928Y-14468214D01*
X12469643Y-14468214D02*
X12469643Y-14168214D01*
X12441071Y-14211071D01*
X12412500Y-14239643D01*
X12383928Y-14253929D01*
X12812500Y-14268214D02*
X12812500Y-14468214D01*
X12741071Y-14153929D02*
X12669643Y-14368214D01*
X12855357Y-14368214D01*
X13198214Y-14468214D02*
X13198214Y-14168214D01*
X13326785Y-14468214D02*
X13326785Y-14311071D01*
X13312500Y-14282500D01*
X13283928Y-14268214D01*
X13241071Y-14268214D01*
X13212500Y-14282500D01*
X13198214Y-14296786D01*
X13512500Y-14468214D02*
X13483928Y-14453929D01*
X13469643Y-14439643D01*
X13455357Y-14411071D01*
X13455357Y-14325357D01*
X13469643Y-14296786D01*
X13483928Y-14282500D01*
X13512500Y-14268214D01*
X13555357Y-14268214D01*
X13583928Y-14282500D01*
X13598214Y-14296786D01*
X13612500Y-14325357D01*
X13612500Y-14411071D01*
X13598214Y-14439643D01*
X13583928Y-14453929D01*
X13555357Y-14468214D01*
X13512500Y-14468214D01*
X13783928Y-14468214D02*
X13755357Y-14453929D01*
X13741071Y-14425357D01*
X13741071Y-14168214D01*
X14012500Y-14453929D02*
X13983928Y-14468214D01*
X13926786Y-14468214D01*
X13898214Y-14453929D01*
X13883928Y-14425357D01*
X13883928Y-14311071D01*
X13898214Y-14282500D01*
X13926786Y-14268214D01*
X13983928Y-14268214D01*
X14012500Y-14282500D01*
X14026786Y-14311071D01*
X14026786Y-14339643D01*
X13883928Y-14368214D01*
X14141071Y-14453929D02*
X14169643Y-14468214D01*
X14226786Y-14468214D01*
X14255357Y-14453929D01*
X14269643Y-14425357D01*
X14269643Y-14411071D01*
X14255357Y-14382500D01*
X14226786Y-14368214D01*
X14183928Y-14368214D01*
X14155357Y-14353929D01*
X14141071Y-14325357D01*
X14141071Y-14311071D01*
X14155357Y-14282500D01*
X14183928Y-14268214D01*
X14226786Y-14268214D01*
X14255357Y-14282500D01*
X14369643Y-14582500D02*
X14383928Y-14568214D01*
X14412500Y-14525357D01*
X14426786Y-14496786D01*
X14441071Y-14453929D01*
X14455357Y-14382500D01*
X14455357Y-14325357D01*
X14441071Y-14253929D01*
X14426786Y-14211071D01*
X14412500Y-14182500D01*
X14383928Y-14139643D01*
X14369643Y-14125357D01*
X7597856Y-14763856D02*
X7597856Y-14693144D01*
X7527144Y-14693144D01*
X7527144Y-14763856D01*
X7597856Y-14763856D01*
X8041071Y-14864214D02*
X7869643Y-14864214D01*
X7955357Y-14864214D02*
X7955357Y-14564214D01*
X7926786Y-14607071D01*
X7898214Y-14635643D01*
X7869643Y-14649929D01*
X8169643Y-14835643D02*
X8183928Y-14849929D01*
X8169643Y-14864214D01*
X8155357Y-14849929D01*
X8169643Y-14835643D01*
X8169643Y-14864214D01*
X8369643Y-14564214D02*
X8398214Y-14564214D01*
X8426786Y-14578500D01*
X8441071Y-14592786D01*
X8455357Y-14621357D01*
X8469643Y-14678500D01*
X8469643Y-14749929D01*
X8455357Y-14807071D01*
X8441071Y-14835643D01*
X8426786Y-14849929D01*
X8398214Y-14864214D01*
X8369643Y-14864214D01*
X8341071Y-14849929D01*
X8326786Y-14835643D01*
X8312500Y-14807071D01*
X8298214Y-14749929D01*
X8298214Y-14678500D01*
X8312500Y-14621357D01*
X8326786Y-14592786D01*
X8341071Y-14578500D01*
X8369643Y-14564214D01*
X8655357Y-14564214D02*
X8683929Y-14564214D01*
X8712500Y-14578500D01*
X8726786Y-14592786D01*
X8741071Y-14621357D01*
X8755357Y-14678500D01*
X8755357Y-14749929D01*
X8741071Y-14807071D01*
X8726786Y-14835643D01*
X8712500Y-14849929D01*
X8683929Y-14864214D01*
X8655357Y-14864214D01*
X8626786Y-14849929D01*
X8612500Y-14835643D01*
X8598214Y-14807071D01*
X8583929Y-14749929D01*
X8583929Y-14678500D01*
X8598214Y-14621357D01*
X8612500Y-14592786D01*
X8626786Y-14578500D01*
X8655357Y-14564214D01*
X8883929Y-14864214D02*
X8883929Y-14664214D01*
X8883929Y-14692786D02*
X8898214Y-14678500D01*
X8926786Y-14664214D01*
X8969643Y-14664214D01*
X8998214Y-14678500D01*
X9012500Y-14707071D01*
X9012500Y-14864214D01*
X9012500Y-14707071D02*
X9026786Y-14678500D01*
X9055357Y-14664214D01*
X9098214Y-14664214D01*
X9126786Y-14678500D01*
X9141071Y-14707071D01*
X9141071Y-14864214D01*
X9283929Y-14864214D02*
X9283929Y-14664214D01*
X9283929Y-14692786D02*
X9298214Y-14678500D01*
X9326786Y-14664214D01*
X9369643Y-14664214D01*
X9398214Y-14678500D01*
X9412500Y-14707071D01*
X9412500Y-14864214D01*
X9412500Y-14707071D02*
X9426786Y-14678500D01*
X9455357Y-14664214D01*
X9498214Y-14664214D01*
X9526786Y-14678500D01*
X9541071Y-14707071D01*
X9541071Y-14864214D01*
X10126786Y-14549929D02*
X9869643Y-14935643D01*
X10512500Y-14564214D02*
X10541071Y-14564214D01*
X10569643Y-14578500D01*
X10583928Y-14592786D01*
X10598214Y-14621357D01*
X10612500Y-14678500D01*
X10612500Y-14749929D01*
X10598214Y-14807071D01*
X10583928Y-14835643D01*
X10569643Y-14849929D01*
X10541071Y-14864214D01*
X10512500Y-14864214D01*
X10483928Y-14849929D01*
X10469643Y-14835643D01*
X10455357Y-14807071D01*
X10441071Y-14749929D01*
X10441071Y-14678500D01*
X10455357Y-14621357D01*
X10469643Y-14592786D01*
X10483928Y-14578500D01*
X10512500Y-14564214D01*
X10741071Y-14835643D02*
X10755357Y-14849929D01*
X10741071Y-14864214D01*
X10726786Y-14849929D01*
X10741071Y-14835643D01*
X10741071Y-14864214D01*
X10941071Y-14564214D02*
X10969643Y-14564214D01*
X10998214Y-14578500D01*
X11012500Y-14592786D01*
X11026786Y-14621357D01*
X11041071Y-14678500D01*
X11041071Y-14749929D01*
X11026786Y-14807071D01*
X11012500Y-14835643D01*
X10998214Y-14849929D01*
X10969643Y-14864214D01*
X10941071Y-14864214D01*
X10912500Y-14849929D01*
X10898214Y-14835643D01*
X10883928Y-14807071D01*
X10869643Y-14749929D01*
X10869643Y-14678500D01*
X10883928Y-14621357D01*
X10898214Y-14592786D01*
X10912500Y-14578500D01*
X10941071Y-14564214D01*
X11141071Y-14564214D02*
X11326785Y-14564214D01*
X11226785Y-14678500D01*
X11269643Y-14678500D01*
X11298214Y-14692786D01*
X11312500Y-14707071D01*
X11326785Y-14735643D01*
X11326785Y-14807071D01*
X11312500Y-14835643D01*
X11298214Y-14849929D01*
X11269643Y-14864214D01*
X11183928Y-14864214D01*
X11155357Y-14849929D01*
X11141071Y-14835643D01*
X11469643Y-14864214D02*
X11526785Y-14864214D01*
X11555357Y-14849929D01*
X11569643Y-14835643D01*
X11598214Y-14792786D01*
X11612500Y-14735643D01*
X11612500Y-14621357D01*
X11598214Y-14592786D01*
X11583928Y-14578500D01*
X11555357Y-14564214D01*
X11498214Y-14564214D01*
X11469643Y-14578500D01*
X11455357Y-14592786D01*
X11441071Y-14621357D01*
X11441071Y-14692786D01*
X11455357Y-14721357D01*
X11469643Y-14735643D01*
X11498214Y-14749929D01*
X11555357Y-14749929D01*
X11583928Y-14735643D01*
X11598214Y-14721357D01*
X11612500Y-14692786D01*
X11726786Y-14564214D02*
X11726786Y-14621357D01*
X11841071Y-14564214D02*
X11841071Y-14621357D01*
X12283928Y-14978500D02*
X12269643Y-14964214D01*
X12241071Y-14921357D01*
X12226785Y-14892786D01*
X12212500Y-14849929D01*
X12198214Y-14778500D01*
X12198214Y-14721357D01*
X12212500Y-14649929D01*
X12226785Y-14607071D01*
X12241071Y-14578500D01*
X12269643Y-14535643D01*
X12283928Y-14521357D01*
X12555357Y-14864214D02*
X12383928Y-14864214D01*
X12469643Y-14864214D02*
X12469643Y-14564214D01*
X12441071Y-14607071D01*
X12412500Y-14635643D01*
X12383928Y-14649929D01*
X12726785Y-14692786D02*
X12698214Y-14678500D01*
X12683928Y-14664214D01*
X12669643Y-14635643D01*
X12669643Y-14621357D01*
X12683928Y-14592786D01*
X12698214Y-14578500D01*
X12726785Y-14564214D01*
X12783928Y-14564214D01*
X12812500Y-14578500D01*
X12826785Y-14592786D01*
X12841071Y-14621357D01*
X12841071Y-14635643D01*
X12826785Y-14664214D01*
X12812500Y-14678500D01*
X12783928Y-14692786D01*
X12726785Y-14692786D01*
X12698214Y-14707071D01*
X12683928Y-14721357D01*
X12669643Y-14749929D01*
X12669643Y-14807071D01*
X12683928Y-14835643D01*
X12698214Y-14849929D01*
X12726785Y-14864214D01*
X12783928Y-14864214D01*
X12812500Y-14849929D01*
X12826785Y-14835643D01*
X12841071Y-14807071D01*
X12841071Y-14749929D01*
X12826785Y-14721357D01*
X12812500Y-14707071D01*
X12783928Y-14692786D01*
X13198214Y-14864214D02*
X13198214Y-14564214D01*
X13326785Y-14864214D02*
X13326785Y-14707071D01*
X13312500Y-14678500D01*
X13283928Y-14664214D01*
X13241071Y-14664214D01*
X13212500Y-14678500D01*
X13198214Y-14692786D01*
X13512500Y-14864214D02*
X13483928Y-14849929D01*
X13469643Y-14835643D01*
X13455357Y-14807071D01*
X13455357Y-14721357D01*
X13469643Y-14692786D01*
X13483928Y-14678500D01*
X13512500Y-14664214D01*
X13555357Y-14664214D01*
X13583928Y-14678500D01*
X13598214Y-14692786D01*
X13612500Y-14721357D01*
X13612500Y-14807071D01*
X13598214Y-14835643D01*
X13583928Y-14849929D01*
X13555357Y-14864214D01*
X13512500Y-14864214D01*
X13783928Y-14864214D02*
X13755357Y-14849929D01*
X13741071Y-14821357D01*
X13741071Y-14564214D01*
X14012500Y-14849929D02*
X13983928Y-14864214D01*
X13926786Y-14864214D01*
X13898214Y-14849929D01*
X13883928Y-14821357D01*
X13883928Y-14707071D01*
X13898214Y-14678500D01*
X13926786Y-14664214D01*
X13983928Y-14664214D01*
X14012500Y-14678500D01*
X14026786Y-14707071D01*
X14026786Y-14735643D01*
X13883928Y-14764214D01*
X14141071Y-14849929D02*
X14169643Y-14864214D01*
X14226786Y-14864214D01*
X14255357Y-14849929D01*
X14269643Y-14821357D01*
X14269643Y-14807071D01*
X14255357Y-14778500D01*
X14226786Y-14764214D01*
X14183928Y-14764214D01*
X14155357Y-14749929D01*
X14141071Y-14721357D01*
X14141071Y-14707071D01*
X14155357Y-14678500D01*
X14183928Y-14664214D01*
X14226786Y-14664214D01*
X14255357Y-14678500D01*
X14369643Y-14978500D02*
X14383928Y-14964214D01*
X14412500Y-14921357D01*
X14426786Y-14892786D01*
X14441071Y-14849929D01*
X14455357Y-14778500D01*
X14455357Y-14721357D01*
X14441071Y-14649929D01*
X14426786Y-14607071D01*
X14412500Y-14578500D01*
X14383928Y-14535643D01*
X14369643Y-14521357D01*
X7555350Y-15181650D02*
X7612500Y-15124500D01*
X7555350Y-15067350D01*
X7498200Y-15124500D01*
X7555350Y-15181650D01*
X8041071Y-15260214D02*
X7869643Y-15260214D01*
X7955357Y-15260214D02*
X7955357Y-14960214D01*
X7926786Y-15003071D01*
X7898214Y-15031643D01*
X7869643Y-15045929D01*
X8169643Y-15231643D02*
X8183928Y-15245929D01*
X8169643Y-15260214D01*
X8155357Y-15245929D01*
X8169643Y-15231643D01*
X8169643Y-15260214D01*
X8469643Y-15260214D02*
X8298214Y-15260214D01*
X8383928Y-15260214D02*
X8383928Y-14960214D01*
X8355357Y-15003071D01*
X8326786Y-15031643D01*
X8298214Y-15045929D01*
X8726786Y-15060214D02*
X8726786Y-15260214D01*
X8655357Y-14945929D02*
X8583929Y-15160214D01*
X8769643Y-15160214D01*
X8883929Y-15260214D02*
X8883929Y-15060214D01*
X8883929Y-15088786D02*
X8898214Y-15074500D01*
X8926786Y-15060214D01*
X8969643Y-15060214D01*
X8998214Y-15074500D01*
X9012500Y-15103071D01*
X9012500Y-15260214D01*
X9012500Y-15103071D02*
X9026786Y-15074500D01*
X9055357Y-15060214D01*
X9098214Y-15060214D01*
X9126786Y-15074500D01*
X9141071Y-15103071D01*
X9141071Y-15260214D01*
X9283929Y-15260214D02*
X9283929Y-15060214D01*
X9283929Y-15088786D02*
X9298214Y-15074500D01*
X9326786Y-15060214D01*
X9369643Y-15060214D01*
X9398214Y-15074500D01*
X9412500Y-15103071D01*
X9412500Y-15260214D01*
X9412500Y-15103071D02*
X9426786Y-15074500D01*
X9455357Y-15060214D01*
X9498214Y-15060214D01*
X9526786Y-15074500D01*
X9541071Y-15103071D01*
X9541071Y-15260214D01*
X10126786Y-14945929D02*
X9869643Y-15331643D01*
X10512500Y-14960214D02*
X10541071Y-14960214D01*
X10569643Y-14974500D01*
X10583928Y-14988786D01*
X10598214Y-15017357D01*
X10612500Y-15074500D01*
X10612500Y-15145929D01*
X10598214Y-15203071D01*
X10583928Y-15231643D01*
X10569643Y-15245929D01*
X10541071Y-15260214D01*
X10512500Y-15260214D01*
X10483928Y-15245929D01*
X10469643Y-15231643D01*
X10455357Y-15203071D01*
X10441071Y-15145929D01*
X10441071Y-15074500D01*
X10455357Y-15017357D01*
X10469643Y-14988786D01*
X10483928Y-14974500D01*
X10512500Y-14960214D01*
X10741071Y-15231643D02*
X10755357Y-15245929D01*
X10741071Y-15260214D01*
X10726786Y-15245929D01*
X10741071Y-15231643D01*
X10741071Y-15260214D01*
X10941071Y-14960214D02*
X10969643Y-14960214D01*
X10998214Y-14974500D01*
X11012500Y-14988786D01*
X11026786Y-15017357D01*
X11041071Y-15074500D01*
X11041071Y-15145929D01*
X11026786Y-15203071D01*
X11012500Y-15231643D01*
X10998214Y-15245929D01*
X10969643Y-15260214D01*
X10941071Y-15260214D01*
X10912500Y-15245929D01*
X10898214Y-15231643D01*
X10883928Y-15203071D01*
X10869643Y-15145929D01*
X10869643Y-15074500D01*
X10883928Y-15017357D01*
X10898214Y-14988786D01*
X10912500Y-14974500D01*
X10941071Y-14960214D01*
X11298214Y-15060214D02*
X11298214Y-15260214D01*
X11226785Y-14945929D02*
X11155357Y-15160214D01*
X11341071Y-15160214D01*
X11598214Y-14960214D02*
X11455357Y-14960214D01*
X11441071Y-15103071D01*
X11455357Y-15088786D01*
X11483928Y-15074500D01*
X11555357Y-15074500D01*
X11583928Y-15088786D01*
X11598214Y-15103071D01*
X11612500Y-15131643D01*
X11612500Y-15203071D01*
X11598214Y-15231643D01*
X11583928Y-15245929D01*
X11555357Y-15260214D01*
X11483928Y-15260214D01*
X11455357Y-15245929D01*
X11441071Y-15231643D01*
X11726786Y-14960214D02*
X11726786Y-15017357D01*
X11841071Y-14960214D02*
X11841071Y-15017357D01*
X12283928Y-15374500D02*
X12269643Y-15360214D01*
X12241071Y-15317357D01*
X12226785Y-15288786D01*
X12212500Y-15245929D01*
X12198214Y-15174500D01*
X12198214Y-15117357D01*
X12212500Y-15045929D01*
X12226785Y-15003071D01*
X12241071Y-14974500D01*
X12269643Y-14931643D01*
X12283928Y-14917357D01*
X12369643Y-14960214D02*
X12555357Y-14960214D01*
X12455357Y-15074500D01*
X12498214Y-15074500D01*
X12526785Y-15088786D01*
X12541071Y-15103071D01*
X12555357Y-15131643D01*
X12555357Y-15203071D01*
X12541071Y-15231643D01*
X12526785Y-15245929D01*
X12498214Y-15260214D01*
X12412500Y-15260214D01*
X12383928Y-15245929D01*
X12369643Y-15231643D01*
X12912500Y-15260214D02*
X12912500Y-14960214D01*
X13041071Y-15260214D02*
X13041071Y-15103071D01*
X13026785Y-15074500D01*
X12998214Y-15060214D01*
X12955357Y-15060214D01*
X12926785Y-15074500D01*
X12912500Y-15088786D01*
X13226785Y-15260214D02*
X13198214Y-15245929D01*
X13183928Y-15231643D01*
X13169643Y-15203071D01*
X13169643Y-15117357D01*
X13183928Y-15088786D01*
X13198214Y-15074500D01*
X13226785Y-15060214D01*
X13269643Y-15060214D01*
X13298214Y-15074500D01*
X13312500Y-15088786D01*
X13326785Y-15117357D01*
X13326785Y-15203071D01*
X13312500Y-15231643D01*
X13298214Y-15245929D01*
X13269643Y-15260214D01*
X13226785Y-15260214D01*
X13498214Y-15260214D02*
X13469643Y-15245929D01*
X13455357Y-15217357D01*
X13455357Y-14960214D01*
X13726786Y-15245929D02*
X13698214Y-15260214D01*
X13641071Y-15260214D01*
X13612500Y-15245929D01*
X13598214Y-15217357D01*
X13598214Y-15103071D01*
X13612500Y-15074500D01*
X13641071Y-15060214D01*
X13698214Y-15060214D01*
X13726786Y-15074500D01*
X13741071Y-15103071D01*
X13741071Y-15131643D01*
X13598214Y-15160214D01*
X13855357Y-15245929D02*
X13883928Y-15260214D01*
X13941071Y-15260214D01*
X13969643Y-15245929D01*
X13983928Y-15217357D01*
X13983928Y-15203071D01*
X13969643Y-15174500D01*
X13941071Y-15160214D01*
X13898214Y-15160214D01*
X13869643Y-15145929D01*
X13855357Y-15117357D01*
X13855357Y-15103071D01*
X13869643Y-15074500D01*
X13898214Y-15060214D01*
X13941071Y-15060214D01*
X13969643Y-15074500D01*
X14083928Y-15374500D02*
X14098214Y-15360214D01*
X14126786Y-15317357D01*
X14141071Y-15288786D01*
X14155357Y-15245929D01*
X14169643Y-15174500D01*
X14169643Y-15117357D01*
X14155357Y-15045929D01*
X14141071Y-15003071D01*
X14126786Y-14974500D01*
X14098214Y-14931643D01*
X14083928Y-14917357D01*
X7490500Y-15459500D02*
X7612500Y-15581500D01*
X7612500Y-15459500D02*
X7490500Y-15581500D01*
X7612500Y-15520500D02*
G75*
G03X7612500Y-15520500I-61000J0D01*
G01*
X8041071Y-15656214D02*
X7869643Y-15656214D01*
X7955357Y-15656214D02*
X7955357Y-15356214D01*
X7926786Y-15399071D01*
X7898214Y-15427643D01*
X7869643Y-15441929D01*
X8169643Y-15627643D02*
X8183928Y-15641929D01*
X8169643Y-15656214D01*
X8155357Y-15641929D01*
X8169643Y-15627643D01*
X8169643Y-15656214D01*
X8298214Y-15384786D02*
X8312500Y-15370500D01*
X8341071Y-15356214D01*
X8412500Y-15356214D01*
X8441071Y-15370500D01*
X8455357Y-15384786D01*
X8469643Y-15413357D01*
X8469643Y-15441929D01*
X8455357Y-15484786D01*
X8283928Y-15656214D01*
X8469643Y-15656214D01*
X8583929Y-15384786D02*
X8598214Y-15370500D01*
X8626786Y-15356214D01*
X8698214Y-15356214D01*
X8726786Y-15370500D01*
X8741071Y-15384786D01*
X8755357Y-15413357D01*
X8755357Y-15441929D01*
X8741071Y-15484786D01*
X8569643Y-15656214D01*
X8755357Y-15656214D01*
X8883929Y-15656214D02*
X8883929Y-15456214D01*
X8883929Y-15484786D02*
X8898214Y-15470500D01*
X8926786Y-15456214D01*
X8969643Y-15456214D01*
X8998214Y-15470500D01*
X9012500Y-15499071D01*
X9012500Y-15656214D01*
X9012500Y-15499071D02*
X9026786Y-15470500D01*
X9055357Y-15456214D01*
X9098214Y-15456214D01*
X9126786Y-15470500D01*
X9141071Y-15499071D01*
X9141071Y-15656214D01*
X9283929Y-15656214D02*
X9283929Y-15456214D01*
X9283929Y-15484786D02*
X9298214Y-15470500D01*
X9326786Y-15456214D01*
X9369643Y-15456214D01*
X9398214Y-15470500D01*
X9412500Y-15499071D01*
X9412500Y-15656214D01*
X9412500Y-15499071D02*
X9426786Y-15470500D01*
X9455357Y-15456214D01*
X9498214Y-15456214D01*
X9526786Y-15470500D01*
X9541071Y-15499071D01*
X9541071Y-15656214D01*
X10126786Y-15341929D02*
X9869643Y-15727643D01*
X10512500Y-15356214D02*
X10541071Y-15356214D01*
X10569643Y-15370500D01*
X10583928Y-15384786D01*
X10598214Y-15413357D01*
X10612500Y-15470500D01*
X10612500Y-15541929D01*
X10598214Y-15599071D01*
X10583928Y-15627643D01*
X10569643Y-15641929D01*
X10541071Y-15656214D01*
X10512500Y-15656214D01*
X10483928Y-15641929D01*
X10469643Y-15627643D01*
X10455357Y-15599071D01*
X10441071Y-15541929D01*
X10441071Y-15470500D01*
X10455357Y-15413357D01*
X10469643Y-15384786D01*
X10483928Y-15370500D01*
X10512500Y-15356214D01*
X10741071Y-15627643D02*
X10755357Y-15641929D01*
X10741071Y-15656214D01*
X10726786Y-15641929D01*
X10741071Y-15627643D01*
X10741071Y-15656214D01*
X10941071Y-15356214D02*
X10969643Y-15356214D01*
X10998214Y-15370500D01*
X11012500Y-15384786D01*
X11026786Y-15413357D01*
X11041071Y-15470500D01*
X11041071Y-15541929D01*
X11026786Y-15599071D01*
X11012500Y-15627643D01*
X10998214Y-15641929D01*
X10969643Y-15656214D01*
X10941071Y-15656214D01*
X10912500Y-15641929D01*
X10898214Y-15627643D01*
X10883928Y-15599071D01*
X10869643Y-15541929D01*
X10869643Y-15470500D01*
X10883928Y-15413357D01*
X10898214Y-15384786D01*
X10912500Y-15370500D01*
X10941071Y-15356214D01*
X11298214Y-15456214D02*
X11298214Y-15656214D01*
X11226785Y-15341929D02*
X11155357Y-15556214D01*
X11341071Y-15556214D01*
X11498214Y-15484786D02*
X11469643Y-15470500D01*
X11455357Y-15456214D01*
X11441071Y-15427643D01*
X11441071Y-15413357D01*
X11455357Y-15384786D01*
X11469643Y-15370500D01*
X11498214Y-15356214D01*
X11555357Y-15356214D01*
X11583928Y-15370500D01*
X11598214Y-15384786D01*
X11612500Y-15413357D01*
X11612500Y-15427643D01*
X11598214Y-15456214D01*
X11583928Y-15470500D01*
X11555357Y-15484786D01*
X11498214Y-15484786D01*
X11469643Y-15499071D01*
X11455357Y-15513357D01*
X11441071Y-15541929D01*
X11441071Y-15599071D01*
X11455357Y-15627643D01*
X11469643Y-15641929D01*
X11498214Y-15656214D01*
X11555357Y-15656214D01*
X11583928Y-15641929D01*
X11598214Y-15627643D01*
X11612500Y-15599071D01*
X11612500Y-15541929D01*
X11598214Y-15513357D01*
X11583928Y-15499071D01*
X11555357Y-15484786D01*
X11726786Y-15356214D02*
X11726786Y-15413357D01*
X11841071Y-15356214D02*
X11841071Y-15413357D01*
X12283928Y-15770500D02*
X12269643Y-15756214D01*
X12241071Y-15713357D01*
X12226785Y-15684786D01*
X12212500Y-15641929D01*
X12198214Y-15570500D01*
X12198214Y-15513357D01*
X12212500Y-15441929D01*
X12226785Y-15399071D01*
X12241071Y-15370500D01*
X12269643Y-15327643D01*
X12283928Y-15313357D01*
X12369643Y-15356214D02*
X12569643Y-15356214D01*
X12441071Y-15656214D01*
X12912500Y-15656214D02*
X12912500Y-15356214D01*
X13041071Y-15656214D02*
X13041071Y-15499071D01*
X13026785Y-15470500D01*
X12998214Y-15456214D01*
X12955357Y-15456214D01*
X12926785Y-15470500D01*
X12912500Y-15484786D01*
X13226785Y-15656214D02*
X13198214Y-15641929D01*
X13183928Y-15627643D01*
X13169643Y-15599071D01*
X13169643Y-15513357D01*
X13183928Y-15484786D01*
X13198214Y-15470500D01*
X13226785Y-15456214D01*
X13269643Y-15456214D01*
X13298214Y-15470500D01*
X13312500Y-15484786D01*
X13326785Y-15513357D01*
X13326785Y-15599071D01*
X13312500Y-15627643D01*
X13298214Y-15641929D01*
X13269643Y-15656214D01*
X13226785Y-15656214D01*
X13498214Y-15656214D02*
X13469643Y-15641929D01*
X13455357Y-15613357D01*
X13455357Y-15356214D01*
X13726786Y-15641929D02*
X13698214Y-15656214D01*
X13641071Y-15656214D01*
X13612500Y-15641929D01*
X13598214Y-15613357D01*
X13598214Y-15499071D01*
X13612500Y-15470500D01*
X13641071Y-15456214D01*
X13698214Y-15456214D01*
X13726786Y-15470500D01*
X13741071Y-15499071D01*
X13741071Y-15527643D01*
X13598214Y-15556214D01*
X13855357Y-15641929D02*
X13883928Y-15656214D01*
X13941071Y-15656214D01*
X13969643Y-15641929D01*
X13983928Y-15613357D01*
X13983928Y-15599071D01*
X13969643Y-15570500D01*
X13941071Y-15556214D01*
X13898214Y-15556214D01*
X13869643Y-15541929D01*
X13855357Y-15513357D01*
X13855357Y-15499071D01*
X13869643Y-15470500D01*
X13898214Y-15456214D01*
X13941071Y-15456214D01*
X13969643Y-15470500D01*
X14083928Y-15770500D02*
X14098214Y-15756214D01*
X14126786Y-15713357D01*
X14141071Y-15684786D01*
X14155357Y-15641929D01*
X14169643Y-15570500D01*
X14169643Y-15513357D01*
X14155357Y-15441929D01*
X14141071Y-15399071D01*
X14126786Y-15370500D01*
X14098214Y-15327643D01*
X14083928Y-15313357D01*
X7482500Y-15851500D02*
X7612500Y-15981500D01*
X7612500Y-15851500D02*
X7482500Y-15981500D01*
X7547500Y-15851500D02*
X7547500Y-15981500D01*
X7482500Y-15916500D02*
X7612500Y-15916500D01*
X8041071Y-16052214D02*
X7869643Y-16052214D01*
X7955357Y-16052214D02*
X7955357Y-15752214D01*
X7926786Y-15795071D01*
X7898214Y-15823643D01*
X7869643Y-15837929D01*
X8169643Y-16023643D02*
X8183928Y-16037929D01*
X8169643Y-16052214D01*
X8155357Y-16037929D01*
X8169643Y-16023643D01*
X8169643Y-16052214D01*
X8283928Y-15752214D02*
X8469643Y-15752214D01*
X8369643Y-15866500D01*
X8412500Y-15866500D01*
X8441071Y-15880786D01*
X8455357Y-15895071D01*
X8469643Y-15923643D01*
X8469643Y-15995071D01*
X8455357Y-16023643D01*
X8441071Y-16037929D01*
X8412500Y-16052214D01*
X8326786Y-16052214D01*
X8298214Y-16037929D01*
X8283928Y-16023643D01*
X8655357Y-15752214D02*
X8683929Y-15752214D01*
X8712500Y-15766500D01*
X8726786Y-15780786D01*
X8741071Y-15809357D01*
X8755357Y-15866500D01*
X8755357Y-15937929D01*
X8741071Y-15995071D01*
X8726786Y-16023643D01*
X8712500Y-16037929D01*
X8683929Y-16052214D01*
X8655357Y-16052214D01*
X8626786Y-16037929D01*
X8612500Y-16023643D01*
X8598214Y-15995071D01*
X8583929Y-15937929D01*
X8583929Y-15866500D01*
X8598214Y-15809357D01*
X8612500Y-15780786D01*
X8626786Y-15766500D01*
X8655357Y-15752214D01*
X8883929Y-16052214D02*
X8883929Y-15852214D01*
X8883929Y-15880786D02*
X8898214Y-15866500D01*
X8926786Y-15852214D01*
X8969643Y-15852214D01*
X8998214Y-15866500D01*
X9012500Y-15895071D01*
X9012500Y-16052214D01*
X9012500Y-15895071D02*
X9026786Y-15866500D01*
X9055357Y-15852214D01*
X9098214Y-15852214D01*
X9126786Y-15866500D01*
X9141071Y-15895071D01*
X9141071Y-16052214D01*
X9283929Y-16052214D02*
X9283929Y-15852214D01*
X9283929Y-15880786D02*
X9298214Y-15866500D01*
X9326786Y-15852214D01*
X9369643Y-15852214D01*
X9398214Y-15866500D01*
X9412500Y-15895071D01*
X9412500Y-16052214D01*
X9412500Y-15895071D02*
X9426786Y-15866500D01*
X9455357Y-15852214D01*
X9498214Y-15852214D01*
X9526786Y-15866500D01*
X9541071Y-15895071D01*
X9541071Y-16052214D01*
X10126786Y-15737929D02*
X9869643Y-16123643D01*
X10512500Y-15752214D02*
X10541071Y-15752214D01*
X10569643Y-15766500D01*
X10583928Y-15780786D01*
X10598214Y-15809357D01*
X10612500Y-15866500D01*
X10612500Y-15937929D01*
X10598214Y-15995071D01*
X10583928Y-16023643D01*
X10569643Y-16037929D01*
X10541071Y-16052214D01*
X10512500Y-16052214D01*
X10483928Y-16037929D01*
X10469643Y-16023643D01*
X10455357Y-15995071D01*
X10441071Y-15937929D01*
X10441071Y-15866500D01*
X10455357Y-15809357D01*
X10469643Y-15780786D01*
X10483928Y-15766500D01*
X10512500Y-15752214D01*
X10741071Y-16023643D02*
X10755357Y-16037929D01*
X10741071Y-16052214D01*
X10726786Y-16037929D01*
X10741071Y-16023643D01*
X10741071Y-16052214D01*
X10941071Y-15752214D02*
X10969643Y-15752214D01*
X10998214Y-15766500D01*
X11012500Y-15780786D01*
X11026786Y-15809357D01*
X11041071Y-15866500D01*
X11041071Y-15937929D01*
X11026786Y-15995071D01*
X11012500Y-16023643D01*
X10998214Y-16037929D01*
X10969643Y-16052214D01*
X10941071Y-16052214D01*
X10912500Y-16037929D01*
X10898214Y-16023643D01*
X10883928Y-15995071D01*
X10869643Y-15937929D01*
X10869643Y-15866500D01*
X10883928Y-15809357D01*
X10898214Y-15780786D01*
X10912500Y-15766500D01*
X10941071Y-15752214D01*
X11312500Y-15752214D02*
X11169643Y-15752214D01*
X11155357Y-15895071D01*
X11169643Y-15880786D01*
X11198214Y-15866500D01*
X11269643Y-15866500D01*
X11298214Y-15880786D01*
X11312500Y-15895071D01*
X11326785Y-15923643D01*
X11326785Y-15995071D01*
X11312500Y-16023643D01*
X11298214Y-16037929D01*
X11269643Y-16052214D01*
X11198214Y-16052214D01*
X11169643Y-16037929D01*
X11155357Y-16023643D01*
X11612500Y-16052214D02*
X11441071Y-16052214D01*
X11526785Y-16052214D02*
X11526785Y-15752214D01*
X11498214Y-15795071D01*
X11469643Y-15823643D01*
X11441071Y-15837929D01*
X11726786Y-15752214D02*
X11726786Y-15809357D01*
X11841071Y-15752214D02*
X11841071Y-15809357D01*
X12283928Y-16166500D02*
X12269643Y-16152214D01*
X12241071Y-16109357D01*
X12226785Y-16080786D01*
X12212500Y-16037929D01*
X12198214Y-15966500D01*
X12198214Y-15909357D01*
X12212500Y-15837929D01*
X12226785Y-15795071D01*
X12241071Y-15766500D01*
X12269643Y-15723643D01*
X12283928Y-15709357D01*
X12541071Y-15752214D02*
X12398214Y-15752214D01*
X12383928Y-15895071D01*
X12398214Y-15880786D01*
X12426785Y-15866500D01*
X12498214Y-15866500D01*
X12526785Y-15880786D01*
X12541071Y-15895071D01*
X12555357Y-15923643D01*
X12555357Y-15995071D01*
X12541071Y-16023643D01*
X12526785Y-16037929D01*
X12498214Y-16052214D01*
X12426785Y-16052214D01*
X12398214Y-16037929D01*
X12383928Y-16023643D01*
X12912500Y-16052214D02*
X12912500Y-15752214D01*
X13041071Y-16052214D02*
X13041071Y-15895071D01*
X13026785Y-15866500D01*
X12998214Y-15852214D01*
X12955357Y-15852214D01*
X12926785Y-15866500D01*
X12912500Y-15880786D01*
X13226785Y-16052214D02*
X13198214Y-16037929D01*
X13183928Y-16023643D01*
X13169643Y-15995071D01*
X13169643Y-15909357D01*
X13183928Y-15880786D01*
X13198214Y-15866500D01*
X13226785Y-15852214D01*
X13269643Y-15852214D01*
X13298214Y-15866500D01*
X13312500Y-15880786D01*
X13326785Y-15909357D01*
X13326785Y-15995071D01*
X13312500Y-16023643D01*
X13298214Y-16037929D01*
X13269643Y-16052214D01*
X13226785Y-16052214D01*
X13498214Y-16052214D02*
X13469643Y-16037929D01*
X13455357Y-16009357D01*
X13455357Y-15752214D01*
X13726786Y-16037929D02*
X13698214Y-16052214D01*
X13641071Y-16052214D01*
X13612500Y-16037929D01*
X13598214Y-16009357D01*
X13598214Y-15895071D01*
X13612500Y-15866500D01*
X13641071Y-15852214D01*
X13698214Y-15852214D01*
X13726786Y-15866500D01*
X13741071Y-15895071D01*
X13741071Y-15923643D01*
X13598214Y-15952214D01*
X13855357Y-16037929D02*
X13883928Y-16052214D01*
X13941071Y-16052214D01*
X13969643Y-16037929D01*
X13983928Y-16009357D01*
X13983928Y-15995071D01*
X13969643Y-15966500D01*
X13941071Y-15952214D01*
X13898214Y-15952214D01*
X13869643Y-15937929D01*
X13855357Y-15909357D01*
X13855357Y-15895071D01*
X13869643Y-15866500D01*
X13898214Y-15852214D01*
X13941071Y-15852214D01*
X13969643Y-15866500D01*
X14083928Y-16166500D02*
X14098214Y-16152214D01*
X14126786Y-16109357D01*
X14141071Y-16080786D01*
X14155357Y-16037929D01*
X14169643Y-15966500D01*
X14169643Y-15909357D01*
X14155357Y-15837929D01*
X14141071Y-15795071D01*
X14126786Y-15766500D01*
X14098214Y-15723643D01*
X14083928Y-15709357D01*
X7470500Y-16241500D02*
X7612500Y-16383500D01*
X7612500Y-16241500D02*
X7470500Y-16383500D01*
X7591705Y-16362705D02*
X7591705Y-16262295D01*
X7491295Y-16262295D01*
X7491295Y-16362705D01*
X7591705Y-16362705D01*
X8041071Y-16448214D02*
X7869643Y-16448214D01*
X7955357Y-16448214D02*
X7955357Y-16148214D01*
X7926786Y-16191071D01*
X7898214Y-16219643D01*
X7869643Y-16233929D01*
X8169643Y-16419643D02*
X8183928Y-16433929D01*
X8169643Y-16448214D01*
X8155357Y-16433929D01*
X8169643Y-16419643D01*
X8169643Y-16448214D01*
X8441071Y-16248214D02*
X8441071Y-16448214D01*
X8369643Y-16133929D02*
X8298214Y-16348214D01*
X8483928Y-16348214D01*
X8583929Y-16176786D02*
X8598214Y-16162500D01*
X8626786Y-16148214D01*
X8698214Y-16148214D01*
X8726786Y-16162500D01*
X8741071Y-16176786D01*
X8755357Y-16205357D01*
X8755357Y-16233929D01*
X8741071Y-16276786D01*
X8569643Y-16448214D01*
X8755357Y-16448214D01*
X8883929Y-16448214D02*
X8883929Y-16248214D01*
X8883929Y-16276786D02*
X8898214Y-16262500D01*
X8926786Y-16248214D01*
X8969643Y-16248214D01*
X8998214Y-16262500D01*
X9012500Y-16291071D01*
X9012500Y-16448214D01*
X9012500Y-16291071D02*
X9026786Y-16262500D01*
X9055357Y-16248214D01*
X9098214Y-16248214D01*
X9126786Y-16262500D01*
X9141071Y-16291071D01*
X9141071Y-16448214D01*
X9283929Y-16448214D02*
X9283929Y-16248214D01*
X9283929Y-16276786D02*
X9298214Y-16262500D01*
X9326786Y-16248214D01*
X9369643Y-16248214D01*
X9398214Y-16262500D01*
X9412500Y-16291071D01*
X9412500Y-16448214D01*
X9412500Y-16291071D02*
X9426786Y-16262500D01*
X9455357Y-16248214D01*
X9498214Y-16248214D01*
X9526786Y-16262500D01*
X9541071Y-16291071D01*
X9541071Y-16448214D01*
X10126786Y-16133929D02*
X9869643Y-16519643D01*
X10512500Y-16148214D02*
X10541071Y-16148214D01*
X10569643Y-16162500D01*
X10583928Y-16176786D01*
X10598214Y-16205357D01*
X10612500Y-16262500D01*
X10612500Y-16333929D01*
X10598214Y-16391071D01*
X10583928Y-16419643D01*
X10569643Y-16433929D01*
X10541071Y-16448214D01*
X10512500Y-16448214D01*
X10483928Y-16433929D01*
X10469643Y-16419643D01*
X10455357Y-16391071D01*
X10441071Y-16333929D01*
X10441071Y-16262500D01*
X10455357Y-16205357D01*
X10469643Y-16176786D01*
X10483928Y-16162500D01*
X10512500Y-16148214D01*
X10741071Y-16419643D02*
X10755357Y-16433929D01*
X10741071Y-16448214D01*
X10726786Y-16433929D01*
X10741071Y-16419643D01*
X10741071Y-16448214D01*
X10941071Y-16148214D02*
X10969643Y-16148214D01*
X10998214Y-16162500D01*
X11012500Y-16176786D01*
X11026786Y-16205357D01*
X11041071Y-16262500D01*
X11041071Y-16333929D01*
X11026786Y-16391071D01*
X11012500Y-16419643D01*
X10998214Y-16433929D01*
X10969643Y-16448214D01*
X10941071Y-16448214D01*
X10912500Y-16433929D01*
X10898214Y-16419643D01*
X10883928Y-16391071D01*
X10869643Y-16333929D01*
X10869643Y-16262500D01*
X10883928Y-16205357D01*
X10898214Y-16176786D01*
X10912500Y-16162500D01*
X10941071Y-16148214D01*
X11312500Y-16148214D02*
X11169643Y-16148214D01*
X11155357Y-16291071D01*
X11169643Y-16276786D01*
X11198214Y-16262500D01*
X11269643Y-16262500D01*
X11298214Y-16276786D01*
X11312500Y-16291071D01*
X11326785Y-16319643D01*
X11326785Y-16391071D01*
X11312500Y-16419643D01*
X11298214Y-16433929D01*
X11269643Y-16448214D01*
X11198214Y-16448214D01*
X11169643Y-16433929D01*
X11155357Y-16419643D01*
X11583928Y-16148214D02*
X11526785Y-16148214D01*
X11498214Y-16162500D01*
X11483928Y-16176786D01*
X11455357Y-16219643D01*
X11441071Y-16276786D01*
X11441071Y-16391071D01*
X11455357Y-16419643D01*
X11469643Y-16433929D01*
X11498214Y-16448214D01*
X11555357Y-16448214D01*
X11583928Y-16433929D01*
X11598214Y-16419643D01*
X11612500Y-16391071D01*
X11612500Y-16319643D01*
X11598214Y-16291071D01*
X11583928Y-16276786D01*
X11555357Y-16262500D01*
X11498214Y-16262500D01*
X11469643Y-16276786D01*
X11455357Y-16291071D01*
X11441071Y-16319643D01*
X11726786Y-16148214D02*
X11726786Y-16205357D01*
X11841071Y-16148214D02*
X11841071Y-16205357D01*
X12283928Y-16562500D02*
X12269643Y-16548214D01*
X12241071Y-16505357D01*
X12226785Y-16476786D01*
X12212500Y-16433929D01*
X12198214Y-16362500D01*
X12198214Y-16305357D01*
X12212500Y-16233929D01*
X12226785Y-16191071D01*
X12241071Y-16162500D01*
X12269643Y-16119643D01*
X12283928Y-16105357D01*
X12369643Y-16148214D02*
X12569643Y-16148214D01*
X12441071Y-16448214D01*
X12912500Y-16448214D02*
X12912500Y-16148214D01*
X13041071Y-16448214D02*
X13041071Y-16291071D01*
X13026785Y-16262500D01*
X12998214Y-16248214D01*
X12955357Y-16248214D01*
X12926785Y-16262500D01*
X12912500Y-16276786D01*
X13226785Y-16448214D02*
X13198214Y-16433929D01*
X13183928Y-16419643D01*
X13169643Y-16391071D01*
X13169643Y-16305357D01*
X13183928Y-16276786D01*
X13198214Y-16262500D01*
X13226785Y-16248214D01*
X13269643Y-16248214D01*
X13298214Y-16262500D01*
X13312500Y-16276786D01*
X13326785Y-16305357D01*
X13326785Y-16391071D01*
X13312500Y-16419643D01*
X13298214Y-16433929D01*
X13269643Y-16448214D01*
X13226785Y-16448214D01*
X13498214Y-16448214D02*
X13469643Y-16433929D01*
X13455357Y-16405357D01*
X13455357Y-16148214D01*
X13726786Y-16433929D02*
X13698214Y-16448214D01*
X13641071Y-16448214D01*
X13612500Y-16433929D01*
X13598214Y-16405357D01*
X13598214Y-16291071D01*
X13612500Y-16262500D01*
X13641071Y-16248214D01*
X13698214Y-16248214D01*
X13726786Y-16262500D01*
X13741071Y-16291071D01*
X13741071Y-16319643D01*
X13598214Y-16348214D01*
X13855357Y-16433929D02*
X13883928Y-16448214D01*
X13941071Y-16448214D01*
X13969643Y-16433929D01*
X13983928Y-16405357D01*
X13983928Y-16391071D01*
X13969643Y-16362500D01*
X13941071Y-16348214D01*
X13898214Y-16348214D01*
X13869643Y-16333929D01*
X13855357Y-16305357D01*
X13855357Y-16291071D01*
X13869643Y-16262500D01*
X13898214Y-16248214D01*
X13941071Y-16248214D01*
X13969643Y-16262500D01*
X14083928Y-16562500D02*
X14098214Y-16548214D01*
X14126786Y-16505357D01*
X14141071Y-16476786D01*
X14155357Y-16433929D01*
X14169643Y-16362500D01*
X14169643Y-16305357D01*
X14155357Y-16233929D01*
X14141071Y-16191071D01*
X14126786Y-16162500D01*
X14098214Y-16119643D01*
X14083928Y-16105357D01*
X7469500Y-16637000D02*
X7612500Y-16780000D01*
X7612500Y-16637000D02*
X7469500Y-16780000D01*
X7541000Y-16780000D02*
X7612500Y-16708500D01*
X7541000Y-16637000D01*
X7469500Y-16708500D01*
X7541000Y-16780000D01*
X8041071Y-16844214D02*
X7869643Y-16844214D01*
X7955357Y-16844214D02*
X7955357Y-16544214D01*
X7926786Y-16587071D01*
X7898214Y-16615643D01*
X7869643Y-16629929D01*
X8169643Y-16815643D02*
X8183928Y-16829929D01*
X8169643Y-16844214D01*
X8155357Y-16829929D01*
X8169643Y-16815643D01*
X8169643Y-16844214D01*
X8441071Y-16644214D02*
X8441071Y-16844214D01*
X8369643Y-16529929D02*
X8298214Y-16744214D01*
X8483928Y-16744214D01*
X8569643Y-16544214D02*
X8755357Y-16544214D01*
X8655357Y-16658500D01*
X8698214Y-16658500D01*
X8726786Y-16672786D01*
X8741071Y-16687071D01*
X8755357Y-16715643D01*
X8755357Y-16787072D01*
X8741071Y-16815643D01*
X8726786Y-16829929D01*
X8698214Y-16844214D01*
X8612500Y-16844214D01*
X8583929Y-16829929D01*
X8569643Y-16815643D01*
X8883929Y-16844214D02*
X8883929Y-16644214D01*
X8883929Y-16672786D02*
X8898214Y-16658500D01*
X8926786Y-16644214D01*
X8969643Y-16644214D01*
X8998214Y-16658500D01*
X9012500Y-16687071D01*
X9012500Y-16844214D01*
X9012500Y-16687071D02*
X9026786Y-16658500D01*
X9055357Y-16644214D01*
X9098214Y-16644214D01*
X9126786Y-16658500D01*
X9141071Y-16687071D01*
X9141071Y-16844214D01*
X9283929Y-16844214D02*
X9283929Y-16644214D01*
X9283929Y-16672786D02*
X9298214Y-16658500D01*
X9326786Y-16644214D01*
X9369643Y-16644214D01*
X9398214Y-16658500D01*
X9412500Y-16687071D01*
X9412500Y-16844214D01*
X9412500Y-16687071D02*
X9426786Y-16658500D01*
X9455357Y-16644214D01*
X9498214Y-16644214D01*
X9526786Y-16658500D01*
X9541071Y-16687071D01*
X9541071Y-16844214D01*
X10126786Y-16529929D02*
X9869643Y-16915643D01*
X10512500Y-16544214D02*
X10541071Y-16544214D01*
X10569643Y-16558500D01*
X10583928Y-16572786D01*
X10598214Y-16601357D01*
X10612500Y-16658500D01*
X10612500Y-16729929D01*
X10598214Y-16787072D01*
X10583928Y-16815643D01*
X10569643Y-16829929D01*
X10541071Y-16844214D01*
X10512500Y-16844214D01*
X10483928Y-16829929D01*
X10469643Y-16815643D01*
X10455357Y-16787072D01*
X10441071Y-16729929D01*
X10441071Y-16658500D01*
X10455357Y-16601357D01*
X10469643Y-16572786D01*
X10483928Y-16558500D01*
X10512500Y-16544214D01*
X10741071Y-16815643D02*
X10755357Y-16829929D01*
X10741071Y-16844214D01*
X10726786Y-16829929D01*
X10741071Y-16815643D01*
X10741071Y-16844214D01*
X10941071Y-16544214D02*
X10969643Y-16544214D01*
X10998214Y-16558500D01*
X11012500Y-16572786D01*
X11026786Y-16601357D01*
X11041071Y-16658500D01*
X11041071Y-16729929D01*
X11026786Y-16787072D01*
X11012500Y-16815643D01*
X10998214Y-16829929D01*
X10969643Y-16844214D01*
X10941071Y-16844214D01*
X10912500Y-16829929D01*
X10898214Y-16815643D01*
X10883928Y-16787072D01*
X10869643Y-16729929D01*
X10869643Y-16658500D01*
X10883928Y-16601357D01*
X10898214Y-16572786D01*
X10912500Y-16558500D01*
X10941071Y-16544214D01*
X11312500Y-16544214D02*
X11169643Y-16544214D01*
X11155357Y-16687071D01*
X11169643Y-16672786D01*
X11198214Y-16658500D01*
X11269643Y-16658500D01*
X11298214Y-16672786D01*
X11312500Y-16687071D01*
X11326785Y-16715643D01*
X11326785Y-16787072D01*
X11312500Y-16815643D01*
X11298214Y-16829929D01*
X11269643Y-16844214D01*
X11198214Y-16844214D01*
X11169643Y-16829929D01*
X11155357Y-16815643D01*
X11583928Y-16544214D02*
X11526785Y-16544214D01*
X11498214Y-16558500D01*
X11483928Y-16572786D01*
X11455357Y-16615643D01*
X11441071Y-16672786D01*
X11441071Y-16787072D01*
X11455357Y-16815643D01*
X11469643Y-16829929D01*
X11498214Y-16844214D01*
X11555357Y-16844214D01*
X11583928Y-16829929D01*
X11598214Y-16815643D01*
X11612500Y-16787072D01*
X11612500Y-16715643D01*
X11598214Y-16687071D01*
X11583928Y-16672786D01*
X11555357Y-16658500D01*
X11498214Y-16658500D01*
X11469643Y-16672786D01*
X11455357Y-16687071D01*
X11441071Y-16715643D01*
X11726786Y-16544214D02*
X11726786Y-16601357D01*
X11841071Y-16544214D02*
X11841071Y-16601357D01*
X12283928Y-16958500D02*
X12269643Y-16944214D01*
X12241071Y-16901357D01*
X12226785Y-16872786D01*
X12212500Y-16829929D01*
X12198214Y-16758500D01*
X12198214Y-16701357D01*
X12212500Y-16629929D01*
X12226785Y-16587071D01*
X12241071Y-16558500D01*
X12269643Y-16515643D01*
X12283928Y-16501357D01*
X12369643Y-16544214D02*
X12569643Y-16544214D01*
X12441071Y-16844214D01*
X12912500Y-16844214D02*
X12912500Y-16544214D01*
X13041071Y-16844214D02*
X13041071Y-16687071D01*
X13026785Y-16658500D01*
X12998214Y-16644214D01*
X12955357Y-16644214D01*
X12926785Y-16658500D01*
X12912500Y-16672786D01*
X13226785Y-16844214D02*
X13198214Y-16829929D01*
X13183928Y-16815643D01*
X13169643Y-16787072D01*
X13169643Y-16701357D01*
X13183928Y-16672786D01*
X13198214Y-16658500D01*
X13226785Y-16644214D01*
X13269643Y-16644214D01*
X13298214Y-16658500D01*
X13312500Y-16672786D01*
X13326785Y-16701357D01*
X13326785Y-16787072D01*
X13312500Y-16815643D01*
X13298214Y-16829929D01*
X13269643Y-16844214D01*
X13226785Y-16844214D01*
X13498214Y-16844214D02*
X13469643Y-16829929D01*
X13455357Y-16801357D01*
X13455357Y-16544214D01*
X13726786Y-16829929D02*
X13698214Y-16844214D01*
X13641071Y-16844214D01*
X13612500Y-16829929D01*
X13598214Y-16801357D01*
X13598214Y-16687071D01*
X13612500Y-16658500D01*
X13641071Y-16644214D01*
X13698214Y-16644214D01*
X13726786Y-16658500D01*
X13741071Y-16687071D01*
X13741071Y-16715643D01*
X13598214Y-16744214D01*
X13855357Y-16829929D02*
X13883928Y-16844214D01*
X13941071Y-16844214D01*
X13969643Y-16829929D01*
X13983928Y-16801357D01*
X13983928Y-16787072D01*
X13969643Y-16758500D01*
X13941071Y-16744214D01*
X13898214Y-16744214D01*
X13869643Y-16729929D01*
X13855357Y-16701357D01*
X13855357Y-16687071D01*
X13869643Y-16658500D01*
X13898214Y-16644214D01*
X13941071Y-16644214D01*
X13969643Y-16658500D01*
X14083928Y-16958500D02*
X14098214Y-16944214D01*
X14126786Y-16901357D01*
X14141071Y-16872786D01*
X14155357Y-16829929D01*
X14169643Y-16758500D01*
X14169643Y-16701357D01*
X14155357Y-16629929D01*
X14141071Y-16587071D01*
X14126786Y-16558500D01*
X14098214Y-16515643D01*
X14083928Y-16501357D01*
X7507500Y-16999500D02*
X7507500Y-17209500D01*
X7402500Y-17104500D02*
X7612500Y-17104500D01*
X7612500Y-17104500D02*
G75*
G03X7612500Y-17104500I-105000J0D01*
G01*
X7869643Y-16968786D02*
X7883928Y-16954500D01*
X7912500Y-16940214D01*
X7983928Y-16940214D01*
X8012500Y-16954500D01*
X8026786Y-16968786D01*
X8041071Y-16997357D01*
X8041071Y-17025929D01*
X8026786Y-17068786D01*
X7855357Y-17240214D01*
X8041071Y-17240214D01*
X8169643Y-17211643D02*
X8183928Y-17225929D01*
X8169643Y-17240214D01*
X8155357Y-17225929D01*
X8169643Y-17211643D01*
X8169643Y-17240214D01*
X8469643Y-17240214D02*
X8298214Y-17240214D01*
X8383928Y-17240214D02*
X8383928Y-16940214D01*
X8355357Y-16983072D01*
X8326786Y-17011643D01*
X8298214Y-17025929D01*
X8655357Y-16940214D02*
X8683929Y-16940214D01*
X8712500Y-16954500D01*
X8726786Y-16968786D01*
X8741071Y-16997357D01*
X8755357Y-17054500D01*
X8755357Y-17125929D01*
X8741071Y-17183072D01*
X8726786Y-17211643D01*
X8712500Y-17225929D01*
X8683929Y-17240214D01*
X8655357Y-17240214D01*
X8626786Y-17225929D01*
X8612500Y-17211643D01*
X8598214Y-17183072D01*
X8583929Y-17125929D01*
X8583929Y-17054500D01*
X8598214Y-16997357D01*
X8612500Y-16968786D01*
X8626786Y-16954500D01*
X8655357Y-16940214D01*
X8883929Y-17240214D02*
X8883929Y-17040214D01*
X8883929Y-17068786D02*
X8898214Y-17054500D01*
X8926786Y-17040214D01*
X8969643Y-17040214D01*
X8998214Y-17054500D01*
X9012500Y-17083072D01*
X9012500Y-17240214D01*
X9012500Y-17083072D02*
X9026786Y-17054500D01*
X9055357Y-17040214D01*
X9098214Y-17040214D01*
X9126786Y-17054500D01*
X9141071Y-17083072D01*
X9141071Y-17240214D01*
X9283929Y-17240214D02*
X9283929Y-17040214D01*
X9283929Y-17068786D02*
X9298214Y-17054500D01*
X9326786Y-17040214D01*
X9369643Y-17040214D01*
X9398214Y-17054500D01*
X9412500Y-17083072D01*
X9412500Y-17240214D01*
X9412500Y-17083072D02*
X9426786Y-17054500D01*
X9455357Y-17040214D01*
X9498214Y-17040214D01*
X9526786Y-17054500D01*
X9541071Y-17083072D01*
X9541071Y-17240214D01*
X10126786Y-16925929D02*
X9869643Y-17311643D01*
X10512500Y-16940214D02*
X10541071Y-16940214D01*
X10569643Y-16954500D01*
X10583928Y-16968786D01*
X10598214Y-16997357D01*
X10612500Y-17054500D01*
X10612500Y-17125929D01*
X10598214Y-17183072D01*
X10583928Y-17211643D01*
X10569643Y-17225929D01*
X10541071Y-17240214D01*
X10512500Y-17240214D01*
X10483928Y-17225929D01*
X10469643Y-17211643D01*
X10455357Y-17183072D01*
X10441071Y-17125929D01*
X10441071Y-17054500D01*
X10455357Y-16997357D01*
X10469643Y-16968786D01*
X10483928Y-16954500D01*
X10512500Y-16940214D01*
X10741071Y-17211643D02*
X10755357Y-17225929D01*
X10741071Y-17240214D01*
X10726786Y-17225929D01*
X10741071Y-17211643D01*
X10741071Y-17240214D01*
X10941071Y-16940214D02*
X10969643Y-16940214D01*
X10998214Y-16954500D01*
X11012500Y-16968786D01*
X11026786Y-16997357D01*
X11041071Y-17054500D01*
X11041071Y-17125929D01*
X11026786Y-17183072D01*
X11012500Y-17211643D01*
X10998214Y-17225929D01*
X10969643Y-17240214D01*
X10941071Y-17240214D01*
X10912500Y-17225929D01*
X10898214Y-17211643D01*
X10883928Y-17183072D01*
X10869643Y-17125929D01*
X10869643Y-17054500D01*
X10883928Y-16997357D01*
X10898214Y-16968786D01*
X10912500Y-16954500D01*
X10941071Y-16940214D01*
X11212500Y-17068786D02*
X11183928Y-17054500D01*
X11169643Y-17040214D01*
X11155357Y-17011643D01*
X11155357Y-16997357D01*
X11169643Y-16968786D01*
X11183928Y-16954500D01*
X11212500Y-16940214D01*
X11269643Y-16940214D01*
X11298214Y-16954500D01*
X11312500Y-16968786D01*
X11326785Y-16997357D01*
X11326785Y-17011643D01*
X11312500Y-17040214D01*
X11298214Y-17054500D01*
X11269643Y-17068786D01*
X11212500Y-17068786D01*
X11183928Y-17083072D01*
X11169643Y-17097357D01*
X11155357Y-17125929D01*
X11155357Y-17183072D01*
X11169643Y-17211643D01*
X11183928Y-17225929D01*
X11212500Y-17240214D01*
X11269643Y-17240214D01*
X11298214Y-17225929D01*
X11312500Y-17211643D01*
X11326785Y-17183072D01*
X11326785Y-17125929D01*
X11312500Y-17097357D01*
X11298214Y-17083072D01*
X11269643Y-17068786D01*
X11426785Y-16940214D02*
X11612500Y-16940214D01*
X11512500Y-17054500D01*
X11555357Y-17054500D01*
X11583928Y-17068786D01*
X11598214Y-17083072D01*
X11612500Y-17111643D01*
X11612500Y-17183072D01*
X11598214Y-17211643D01*
X11583928Y-17225929D01*
X11555357Y-17240214D01*
X11469643Y-17240214D01*
X11441071Y-17225929D01*
X11426785Y-17211643D01*
X11726786Y-16940214D02*
X11726786Y-16997357D01*
X11841071Y-16940214D02*
X11841071Y-16997357D01*
X12283928Y-17354500D02*
X12269643Y-17340214D01*
X12241071Y-17297357D01*
X12226785Y-17268786D01*
X12212500Y-17225929D01*
X12198214Y-17154500D01*
X12198214Y-17097357D01*
X12212500Y-17025929D01*
X12226785Y-16983072D01*
X12241071Y-16954500D01*
X12269643Y-16911643D01*
X12283928Y-16897357D01*
X12555357Y-17240214D02*
X12383928Y-17240214D01*
X12469643Y-17240214D02*
X12469643Y-16940214D01*
X12441071Y-16983072D01*
X12412500Y-17011643D01*
X12383928Y-17025929D01*
X12669643Y-16968786D02*
X12683928Y-16954500D01*
X12712500Y-16940214D01*
X12783928Y-16940214D01*
X12812500Y-16954500D01*
X12826785Y-16968786D01*
X12841071Y-16997357D01*
X12841071Y-17025929D01*
X12826785Y-17068786D01*
X12655357Y-17240214D01*
X12841071Y-17240214D01*
X13198214Y-17240214D02*
X13198214Y-16940214D01*
X13326785Y-17240214D02*
X13326785Y-17083072D01*
X13312500Y-17054500D01*
X13283928Y-17040214D01*
X13241071Y-17040214D01*
X13212500Y-17054500D01*
X13198214Y-17068786D01*
X13512500Y-17240214D02*
X13483928Y-17225929D01*
X13469643Y-17211643D01*
X13455357Y-17183072D01*
X13455357Y-17097357D01*
X13469643Y-17068786D01*
X13483928Y-17054500D01*
X13512500Y-17040214D01*
X13555357Y-17040214D01*
X13583928Y-17054500D01*
X13598214Y-17068786D01*
X13612500Y-17097357D01*
X13612500Y-17183072D01*
X13598214Y-17211643D01*
X13583928Y-17225929D01*
X13555357Y-17240214D01*
X13512500Y-17240214D01*
X13783928Y-17240214D02*
X13755357Y-17225929D01*
X13741071Y-17197357D01*
X13741071Y-16940214D01*
X14012500Y-17225929D02*
X13983928Y-17240214D01*
X13926786Y-17240214D01*
X13898214Y-17225929D01*
X13883928Y-17197357D01*
X13883928Y-17083072D01*
X13898214Y-17054500D01*
X13926786Y-17040214D01*
X13983928Y-17040214D01*
X14012500Y-17054500D01*
X14026786Y-17083072D01*
X14026786Y-17111643D01*
X13883928Y-17140214D01*
X14141071Y-17225929D02*
X14169643Y-17240214D01*
X14226786Y-17240214D01*
X14255357Y-17225929D01*
X14269643Y-17197357D01*
X14269643Y-17183072D01*
X14255357Y-17154500D01*
X14226786Y-17140214D01*
X14183928Y-17140214D01*
X14155357Y-17125929D01*
X14141071Y-17097357D01*
X14141071Y-17083072D01*
X14155357Y-17054500D01*
X14183928Y-17040214D01*
X14226786Y-17040214D01*
X14255357Y-17054500D01*
X14369643Y-17354500D02*
X14383928Y-17340214D01*
X14412500Y-17297357D01*
X14426786Y-17268786D01*
X14441071Y-17225929D01*
X14455357Y-17154500D01*
X14455357Y-17097357D01*
X14441071Y-17025929D01*
X14426786Y-16983072D01*
X14412500Y-16954500D01*
X14383928Y-16911643D01*
X14369643Y-16897357D01*
X7580282Y-17578283D02*
X7580282Y-17422718D01*
X7424717Y-17422718D01*
X7424717Y-17578283D01*
X7580282Y-17578283D01*
X7612500Y-17500500D02*
G75*
G03X7612500Y-17500500I-110000J0D01*
G01*
X7869643Y-17364786D02*
X7883928Y-17350500D01*
X7912500Y-17336214D01*
X7983928Y-17336214D01*
X8012500Y-17350500D01*
X8026786Y-17364786D01*
X8041071Y-17393357D01*
X8041071Y-17421929D01*
X8026786Y-17464786D01*
X7855357Y-17636214D01*
X8041071Y-17636214D01*
X8169643Y-17607643D02*
X8183928Y-17621929D01*
X8169643Y-17636214D01*
X8155357Y-17621929D01*
X8169643Y-17607643D01*
X8169643Y-17636214D01*
X8298214Y-17364786D02*
X8312500Y-17350500D01*
X8341071Y-17336214D01*
X8412500Y-17336214D01*
X8441071Y-17350500D01*
X8455357Y-17364786D01*
X8469643Y-17393357D01*
X8469643Y-17421929D01*
X8455357Y-17464786D01*
X8283928Y-17636214D01*
X8469643Y-17636214D01*
X8655357Y-17336214D02*
X8683929Y-17336214D01*
X8712500Y-17350500D01*
X8726786Y-17364786D01*
X8741071Y-17393357D01*
X8755357Y-17450500D01*
X8755357Y-17521929D01*
X8741071Y-17579072D01*
X8726786Y-17607643D01*
X8712500Y-17621929D01*
X8683929Y-17636214D01*
X8655357Y-17636214D01*
X8626786Y-17621929D01*
X8612500Y-17607643D01*
X8598214Y-17579072D01*
X8583929Y-17521929D01*
X8583929Y-17450500D01*
X8598214Y-17393357D01*
X8612500Y-17364786D01*
X8626786Y-17350500D01*
X8655357Y-17336214D01*
X8883929Y-17636214D02*
X8883929Y-17436214D01*
X8883929Y-17464786D02*
X8898214Y-17450500D01*
X8926786Y-17436214D01*
X8969643Y-17436214D01*
X8998214Y-17450500D01*
X9012500Y-17479072D01*
X9012500Y-17636214D01*
X9012500Y-17479072D02*
X9026786Y-17450500D01*
X9055357Y-17436214D01*
X9098214Y-17436214D01*
X9126786Y-17450500D01*
X9141071Y-17479072D01*
X9141071Y-17636214D01*
X9283929Y-17636214D02*
X9283929Y-17436214D01*
X9283929Y-17464786D02*
X9298214Y-17450500D01*
X9326786Y-17436214D01*
X9369643Y-17436214D01*
X9398214Y-17450500D01*
X9412500Y-17479072D01*
X9412500Y-17636214D01*
X9412500Y-17479072D02*
X9426786Y-17450500D01*
X9455357Y-17436214D01*
X9498214Y-17436214D01*
X9526786Y-17450500D01*
X9541071Y-17479072D01*
X9541071Y-17636214D01*
X10126786Y-17321929D02*
X9869643Y-17707643D01*
X10512500Y-17336214D02*
X10541071Y-17336214D01*
X10569643Y-17350500D01*
X10583928Y-17364786D01*
X10598214Y-17393357D01*
X10612500Y-17450500D01*
X10612500Y-17521929D01*
X10598214Y-17579072D01*
X10583928Y-17607643D01*
X10569643Y-17621929D01*
X10541071Y-17636214D01*
X10512500Y-17636214D01*
X10483928Y-17621929D01*
X10469643Y-17607643D01*
X10455357Y-17579072D01*
X10441071Y-17521929D01*
X10441071Y-17450500D01*
X10455357Y-17393357D01*
X10469643Y-17364786D01*
X10483928Y-17350500D01*
X10512500Y-17336214D01*
X10741071Y-17607643D02*
X10755357Y-17621929D01*
X10741071Y-17636214D01*
X10726786Y-17621929D01*
X10741071Y-17607643D01*
X10741071Y-17636214D01*
X10941071Y-17336214D02*
X10969643Y-17336214D01*
X10998214Y-17350500D01*
X11012500Y-17364786D01*
X11026786Y-17393357D01*
X11041071Y-17450500D01*
X11041071Y-17521929D01*
X11026786Y-17579072D01*
X11012500Y-17607643D01*
X10998214Y-17621929D01*
X10969643Y-17636214D01*
X10941071Y-17636214D01*
X10912500Y-17621929D01*
X10898214Y-17607643D01*
X10883928Y-17579072D01*
X10869643Y-17521929D01*
X10869643Y-17450500D01*
X10883928Y-17393357D01*
X10898214Y-17364786D01*
X10912500Y-17350500D01*
X10941071Y-17336214D01*
X11212500Y-17464786D02*
X11183928Y-17450500D01*
X11169643Y-17436214D01*
X11155357Y-17407643D01*
X11155357Y-17393357D01*
X11169643Y-17364786D01*
X11183928Y-17350500D01*
X11212500Y-17336214D01*
X11269643Y-17336214D01*
X11298214Y-17350500D01*
X11312500Y-17364786D01*
X11326785Y-17393357D01*
X11326785Y-17407643D01*
X11312500Y-17436214D01*
X11298214Y-17450500D01*
X11269643Y-17464786D01*
X11212500Y-17464786D01*
X11183928Y-17479072D01*
X11169643Y-17493357D01*
X11155357Y-17521929D01*
X11155357Y-17579072D01*
X11169643Y-17607643D01*
X11183928Y-17621929D01*
X11212500Y-17636214D01*
X11269643Y-17636214D01*
X11298214Y-17621929D01*
X11312500Y-17607643D01*
X11326785Y-17579072D01*
X11326785Y-17521929D01*
X11312500Y-17493357D01*
X11298214Y-17479072D01*
X11269643Y-17464786D01*
X11426785Y-17336214D02*
X11626785Y-17336214D01*
X11498214Y-17636214D01*
X11726786Y-17336214D02*
X11726786Y-17393357D01*
X11841071Y-17336214D02*
X11841071Y-17393357D01*
X12283928Y-17750500D02*
X12269643Y-17736214D01*
X12241071Y-17693357D01*
X12226785Y-17664786D01*
X12212500Y-17621929D01*
X12198214Y-17550500D01*
X12198214Y-17493357D01*
X12212500Y-17421929D01*
X12226785Y-17379072D01*
X12241071Y-17350500D01*
X12269643Y-17307643D01*
X12283928Y-17293357D01*
X12526785Y-17436214D02*
X12526785Y-17636214D01*
X12455357Y-17321929D02*
X12383928Y-17536214D01*
X12569643Y-17536214D01*
X12912500Y-17636214D02*
X12912500Y-17336214D01*
X13041071Y-17636214D02*
X13041071Y-17479072D01*
X13026785Y-17450500D01*
X12998214Y-17436214D01*
X12955357Y-17436214D01*
X12926785Y-17450500D01*
X12912500Y-17464786D01*
X13226785Y-17636214D02*
X13198214Y-17621929D01*
X13183928Y-17607643D01*
X13169643Y-17579072D01*
X13169643Y-17493357D01*
X13183928Y-17464786D01*
X13198214Y-17450500D01*
X13226785Y-17436214D01*
X13269643Y-17436214D01*
X13298214Y-17450500D01*
X13312500Y-17464786D01*
X13326785Y-17493357D01*
X13326785Y-17579072D01*
X13312500Y-17607643D01*
X13298214Y-17621929D01*
X13269643Y-17636214D01*
X13226785Y-17636214D01*
X13498214Y-17636214D02*
X13469643Y-17621929D01*
X13455357Y-17593357D01*
X13455357Y-17336214D01*
X13726786Y-17621929D02*
X13698214Y-17636214D01*
X13641071Y-17636214D01*
X13612500Y-17621929D01*
X13598214Y-17593357D01*
X13598214Y-17479072D01*
X13612500Y-17450500D01*
X13641071Y-17436214D01*
X13698214Y-17436214D01*
X13726786Y-17450500D01*
X13741071Y-17479072D01*
X13741071Y-17507643D01*
X13598214Y-17536214D01*
X13855357Y-17621929D02*
X13883928Y-17636214D01*
X13941071Y-17636214D01*
X13969643Y-17621929D01*
X13983928Y-17593357D01*
X13983928Y-17579072D01*
X13969643Y-17550500D01*
X13941071Y-17536214D01*
X13898214Y-17536214D01*
X13869643Y-17521929D01*
X13855357Y-17493357D01*
X13855357Y-17479072D01*
X13869643Y-17450500D01*
X13898214Y-17436214D01*
X13941071Y-17436214D01*
X13969643Y-17450500D01*
X14083928Y-17750500D02*
X14098214Y-17736214D01*
X14126786Y-17693357D01*
X14141071Y-17664786D01*
X14155357Y-17621929D01*
X14169643Y-17550500D01*
X14169643Y-17493357D01*
X14155357Y-17421929D01*
X14141071Y-17379072D01*
X14126786Y-17350500D01*
X14098214Y-17307643D01*
X14083928Y-17293357D01*
X7482500Y-18026500D02*
X7612500Y-17896500D01*
X7482500Y-17766500D01*
X7352500Y-17896500D01*
X7482500Y-18026500D01*
X7612500Y-17896500D02*
G75*
G03X7612500Y-17896500I-130000J0D01*
G01*
X7869643Y-17760786D02*
X7883928Y-17746500D01*
X7912500Y-17732214D01*
X7983928Y-17732214D01*
X8012500Y-17746500D01*
X8026786Y-17760786D01*
X8041071Y-17789357D01*
X8041071Y-17817929D01*
X8026786Y-17860786D01*
X7855357Y-18032214D01*
X8041071Y-18032214D01*
X8169643Y-18003643D02*
X8183928Y-18017929D01*
X8169643Y-18032214D01*
X8155357Y-18017929D01*
X8169643Y-18003643D01*
X8169643Y-18032214D01*
X8441071Y-17732214D02*
X8383928Y-17732214D01*
X8355357Y-17746500D01*
X8341071Y-17760786D01*
X8312500Y-17803643D01*
X8298214Y-17860786D01*
X8298214Y-17975072D01*
X8312500Y-18003643D01*
X8326786Y-18017929D01*
X8355357Y-18032214D01*
X8412500Y-18032214D01*
X8441071Y-18017929D01*
X8455357Y-18003643D01*
X8469643Y-17975072D01*
X8469643Y-17903643D01*
X8455357Y-17875072D01*
X8441071Y-17860786D01*
X8412500Y-17846500D01*
X8355357Y-17846500D01*
X8326786Y-17860786D01*
X8312500Y-17875072D01*
X8298214Y-17903643D01*
X8655357Y-17732214D02*
X8683929Y-17732214D01*
X8712500Y-17746500D01*
X8726786Y-17760786D01*
X8741071Y-17789357D01*
X8755357Y-17846500D01*
X8755357Y-17917929D01*
X8741071Y-17975072D01*
X8726786Y-18003643D01*
X8712500Y-18017929D01*
X8683929Y-18032214D01*
X8655357Y-18032214D01*
X8626786Y-18017929D01*
X8612500Y-18003643D01*
X8598214Y-17975072D01*
X8583929Y-17917929D01*
X8583929Y-17846500D01*
X8598214Y-17789357D01*
X8612500Y-17760786D01*
X8626786Y-17746500D01*
X8655357Y-17732214D01*
X8883929Y-18032214D02*
X8883929Y-17832214D01*
X8883929Y-17860786D02*
X8898214Y-17846500D01*
X8926786Y-17832214D01*
X8969643Y-17832214D01*
X8998214Y-17846500D01*
X9012500Y-17875072D01*
X9012500Y-18032214D01*
X9012500Y-17875072D02*
X9026786Y-17846500D01*
X9055357Y-17832214D01*
X9098214Y-17832214D01*
X9126786Y-17846500D01*
X9141071Y-17875072D01*
X9141071Y-18032214D01*
X9283929Y-18032214D02*
X9283929Y-17832214D01*
X9283929Y-17860786D02*
X9298214Y-17846500D01*
X9326786Y-17832214D01*
X9369643Y-17832214D01*
X9398214Y-17846500D01*
X9412500Y-17875072D01*
X9412500Y-18032214D01*
X9412500Y-17875072D02*
X9426786Y-17846500D01*
X9455357Y-17832214D01*
X9498214Y-17832214D01*
X9526786Y-17846500D01*
X9541071Y-17875072D01*
X9541071Y-18032214D01*
X10126786Y-17717929D02*
X9869643Y-18103643D01*
X10512500Y-17732214D02*
X10541071Y-17732214D01*
X10569643Y-17746500D01*
X10583928Y-17760786D01*
X10598214Y-17789357D01*
X10612500Y-17846500D01*
X10612500Y-17917929D01*
X10598214Y-17975072D01*
X10583928Y-18003643D01*
X10569643Y-18017929D01*
X10541071Y-18032214D01*
X10512500Y-18032214D01*
X10483928Y-18017929D01*
X10469643Y-18003643D01*
X10455357Y-17975072D01*
X10441071Y-17917929D01*
X10441071Y-17846500D01*
X10455357Y-17789357D01*
X10469643Y-17760786D01*
X10483928Y-17746500D01*
X10512500Y-17732214D01*
X10741071Y-18003643D02*
X10755357Y-18017929D01*
X10741071Y-18032214D01*
X10726786Y-18017929D01*
X10741071Y-18003643D01*
X10741071Y-18032214D01*
X11041071Y-18032214D02*
X10869643Y-18032214D01*
X10955357Y-18032214D02*
X10955357Y-17732214D01*
X10926786Y-17775072D01*
X10898214Y-17803643D01*
X10869643Y-17817929D01*
X11226785Y-17732214D02*
X11255357Y-17732214D01*
X11283928Y-17746500D01*
X11298214Y-17760786D01*
X11312500Y-17789357D01*
X11326785Y-17846500D01*
X11326785Y-17917929D01*
X11312500Y-17975072D01*
X11298214Y-18003643D01*
X11283928Y-18017929D01*
X11255357Y-18032214D01*
X11226785Y-18032214D01*
X11198214Y-18017929D01*
X11183928Y-18003643D01*
X11169643Y-17975072D01*
X11155357Y-17917929D01*
X11155357Y-17846500D01*
X11169643Y-17789357D01*
X11183928Y-17760786D01*
X11198214Y-17746500D01*
X11226785Y-17732214D01*
X11441071Y-17760786D02*
X11455357Y-17746500D01*
X11483928Y-17732214D01*
X11555357Y-17732214D01*
X11583928Y-17746500D01*
X11598214Y-17760786D01*
X11612500Y-17789357D01*
X11612500Y-17817929D01*
X11598214Y-17860786D01*
X11426785Y-18032214D01*
X11612500Y-18032214D01*
X11726786Y-17732214D02*
X11726786Y-17789357D01*
X11841071Y-17732214D02*
X11841071Y-17789357D01*
X12283928Y-18146500D02*
X12269643Y-18132214D01*
X12241071Y-18089357D01*
X12226785Y-18060786D01*
X12212500Y-18017929D01*
X12198214Y-17946500D01*
X12198214Y-17889357D01*
X12212500Y-17817929D01*
X12226785Y-17775072D01*
X12241071Y-17746500D01*
X12269643Y-17703643D01*
X12283928Y-17689357D01*
X12383928Y-17760786D02*
X12398214Y-17746500D01*
X12426785Y-17732214D01*
X12498214Y-17732214D01*
X12526785Y-17746500D01*
X12541071Y-17760786D01*
X12555357Y-17789357D01*
X12555357Y-17817929D01*
X12541071Y-17860786D01*
X12369643Y-18032214D01*
X12555357Y-18032214D01*
X12912500Y-18032214D02*
X12912500Y-17732214D01*
X13041071Y-18032214D02*
X13041071Y-17875072D01*
X13026785Y-17846500D01*
X12998214Y-17832214D01*
X12955357Y-17832214D01*
X12926785Y-17846500D01*
X12912500Y-17860786D01*
X13226785Y-18032214D02*
X13198214Y-18017929D01*
X13183928Y-18003643D01*
X13169643Y-17975072D01*
X13169643Y-17889357D01*
X13183928Y-17860786D01*
X13198214Y-17846500D01*
X13226785Y-17832214D01*
X13269643Y-17832214D01*
X13298214Y-17846500D01*
X13312500Y-17860786D01*
X13326785Y-17889357D01*
X13326785Y-17975072D01*
X13312500Y-18003643D01*
X13298214Y-18017929D01*
X13269643Y-18032214D01*
X13226785Y-18032214D01*
X13498214Y-18032214D02*
X13469643Y-18017929D01*
X13455357Y-17989357D01*
X13455357Y-17732214D01*
X13726786Y-18017929D02*
X13698214Y-18032214D01*
X13641071Y-18032214D01*
X13612500Y-18017929D01*
X13598214Y-17989357D01*
X13598214Y-17875072D01*
X13612500Y-17846500D01*
X13641071Y-17832214D01*
X13698214Y-17832214D01*
X13726786Y-17846500D01*
X13741071Y-17875072D01*
X13741071Y-17903643D01*
X13598214Y-17932214D01*
X13855357Y-18017929D02*
X13883928Y-18032214D01*
X13941071Y-18032214D01*
X13969643Y-18017929D01*
X13983928Y-17989357D01*
X13983928Y-17975072D01*
X13969643Y-17946500D01*
X13941071Y-17932214D01*
X13898214Y-17932214D01*
X13869643Y-17917929D01*
X13855357Y-17889357D01*
X13855357Y-17875072D01*
X13869643Y-17846500D01*
X13898214Y-17832214D01*
X13941071Y-17832214D01*
X13969643Y-17846500D01*
X14083928Y-18146500D02*
X14098214Y-18132214D01*
X14126786Y-18089357D01*
X14141071Y-18060786D01*
X14155357Y-18017929D01*
X14169643Y-17946500D01*
X14169643Y-17889357D01*
X14155357Y-17817929D01*
X14141071Y-17775072D01*
X14126786Y-17746500D01*
X14098214Y-17703643D01*
X14083928Y-17689357D01*
X7460100Y-18140100D02*
X7460100Y-18444900D01*
X7307700Y-18292500D02*
X7612500Y-18292500D01*
X7567864Y-18400264D02*
X7567864Y-18184736D01*
X7352336Y-18184736D01*
X7352336Y-18400264D01*
X7567864Y-18400264D01*
X7855357Y-18128214D02*
X8041071Y-18128214D01*
X7941071Y-18242500D01*
X7983928Y-18242500D01*
X8012500Y-18256786D01*
X8026786Y-18271072D01*
X8041071Y-18299643D01*
X8041071Y-18371072D01*
X8026786Y-18399643D01*
X8012500Y-18413929D01*
X7983928Y-18428214D01*
X7898214Y-18428214D01*
X7869643Y-18413929D01*
X7855357Y-18399643D01*
X8169643Y-18399643D02*
X8183928Y-18413929D01*
X8169643Y-18428214D01*
X8155357Y-18413929D01*
X8169643Y-18399643D01*
X8169643Y-18428214D01*
X8369643Y-18128214D02*
X8398214Y-18128214D01*
X8426786Y-18142500D01*
X8441071Y-18156786D01*
X8455357Y-18185357D01*
X8469643Y-18242500D01*
X8469643Y-18313929D01*
X8455357Y-18371072D01*
X8441071Y-18399643D01*
X8426786Y-18413929D01*
X8398214Y-18428214D01*
X8369643Y-18428214D01*
X8341071Y-18413929D01*
X8326786Y-18399643D01*
X8312500Y-18371072D01*
X8298214Y-18313929D01*
X8298214Y-18242500D01*
X8312500Y-18185357D01*
X8326786Y-18156786D01*
X8341071Y-18142500D01*
X8369643Y-18128214D01*
X8741071Y-18128214D02*
X8598214Y-18128214D01*
X8583929Y-18271072D01*
X8598214Y-18256786D01*
X8626786Y-18242500D01*
X8698214Y-18242500D01*
X8726786Y-18256786D01*
X8741071Y-18271072D01*
X8755357Y-18299643D01*
X8755357Y-18371072D01*
X8741071Y-18399643D01*
X8726786Y-18413929D01*
X8698214Y-18428214D01*
X8626786Y-18428214D01*
X8598214Y-18413929D01*
X8583929Y-18399643D01*
X8883929Y-18428214D02*
X8883929Y-18228214D01*
X8883929Y-18256786D02*
X8898214Y-18242500D01*
X8926786Y-18228214D01*
X8969643Y-18228214D01*
X8998214Y-18242500D01*
X9012500Y-18271072D01*
X9012500Y-18428214D01*
X9012500Y-18271072D02*
X9026786Y-18242500D01*
X9055357Y-18228214D01*
X9098214Y-18228214D01*
X9126786Y-18242500D01*
X9141071Y-18271072D01*
X9141071Y-18428214D01*
X9283929Y-18428214D02*
X9283929Y-18228214D01*
X9283929Y-18256786D02*
X9298214Y-18242500D01*
X9326786Y-18228214D01*
X9369643Y-18228214D01*
X9398214Y-18242500D01*
X9412500Y-18271072D01*
X9412500Y-18428214D01*
X9412500Y-18271072D02*
X9426786Y-18242500D01*
X9455357Y-18228214D01*
X9498214Y-18228214D01*
X9526786Y-18242500D01*
X9541071Y-18271072D01*
X9541071Y-18428214D01*
X10126786Y-18113929D02*
X9869643Y-18499643D01*
X10512500Y-18128214D02*
X10541071Y-18128214D01*
X10569643Y-18142500D01*
X10583928Y-18156786D01*
X10598214Y-18185357D01*
X10612500Y-18242500D01*
X10612500Y-18313929D01*
X10598214Y-18371072D01*
X10583928Y-18399643D01*
X10569643Y-18413929D01*
X10541071Y-18428214D01*
X10512500Y-18428214D01*
X10483928Y-18413929D01*
X10469643Y-18399643D01*
X10455357Y-18371072D01*
X10441071Y-18313929D01*
X10441071Y-18242500D01*
X10455357Y-18185357D01*
X10469643Y-18156786D01*
X10483928Y-18142500D01*
X10512500Y-18128214D01*
X10741071Y-18399643D02*
X10755357Y-18413929D01*
X10741071Y-18428214D01*
X10726786Y-18413929D01*
X10741071Y-18399643D01*
X10741071Y-18428214D01*
X11041071Y-18428214D02*
X10869643Y-18428214D01*
X10955357Y-18428214D02*
X10955357Y-18128214D01*
X10926786Y-18171072D01*
X10898214Y-18199643D01*
X10869643Y-18213929D01*
X11155357Y-18156786D02*
X11169643Y-18142500D01*
X11198214Y-18128214D01*
X11269643Y-18128214D01*
X11298214Y-18142500D01*
X11312500Y-18156786D01*
X11326785Y-18185357D01*
X11326785Y-18213929D01*
X11312500Y-18256786D01*
X11141071Y-18428214D01*
X11326785Y-18428214D01*
X11512500Y-18128214D02*
X11541071Y-18128214D01*
X11569643Y-18142500D01*
X11583928Y-18156786D01*
X11598214Y-18185357D01*
X11612500Y-18242500D01*
X11612500Y-18313929D01*
X11598214Y-18371072D01*
X11583928Y-18399643D01*
X11569643Y-18413929D01*
X11541071Y-18428214D01*
X11512500Y-18428214D01*
X11483928Y-18413929D01*
X11469643Y-18399643D01*
X11455357Y-18371072D01*
X11441071Y-18313929D01*
X11441071Y-18242500D01*
X11455357Y-18185357D01*
X11469643Y-18156786D01*
X11483928Y-18142500D01*
X11512500Y-18128214D01*
X11726786Y-18128214D02*
X11726786Y-18185357D01*
X11841071Y-18128214D02*
X11841071Y-18185357D01*
X12283928Y-18542500D02*
X12269643Y-18528214D01*
X12241071Y-18485357D01*
X12226785Y-18456786D01*
X12212500Y-18413929D01*
X12198214Y-18342500D01*
X12198214Y-18285357D01*
X12212500Y-18213929D01*
X12226785Y-18171072D01*
X12241071Y-18142500D01*
X12269643Y-18099643D01*
X12283928Y-18085357D01*
X12555357Y-18428214D02*
X12383928Y-18428214D01*
X12469643Y-18428214D02*
X12469643Y-18128214D01*
X12441071Y-18171072D01*
X12412500Y-18199643D01*
X12383928Y-18213929D01*
X12912500Y-18428214D02*
X12912500Y-18128214D01*
X13041071Y-18428214D02*
X13041071Y-18271072D01*
X13026785Y-18242500D01*
X12998214Y-18228214D01*
X12955357Y-18228214D01*
X12926785Y-18242500D01*
X12912500Y-18256786D01*
X13226785Y-18428214D02*
X13198214Y-18413929D01*
X13183928Y-18399643D01*
X13169643Y-18371072D01*
X13169643Y-18285357D01*
X13183928Y-18256786D01*
X13198214Y-18242500D01*
X13226785Y-18228214D01*
X13269643Y-18228214D01*
X13298214Y-18242500D01*
X13312500Y-18256786D01*
X13326785Y-18285357D01*
X13326785Y-18371072D01*
X13312500Y-18399643D01*
X13298214Y-18413929D01*
X13269643Y-18428214D01*
X13226785Y-18428214D01*
X13498214Y-18428214D02*
X13469643Y-18413929D01*
X13455357Y-18385357D01*
X13455357Y-18128214D01*
X13726786Y-18413929D02*
X13698214Y-18428214D01*
X13641071Y-18428214D01*
X13612500Y-18413929D01*
X13598214Y-18385357D01*
X13598214Y-18271072D01*
X13612500Y-18242500D01*
X13641071Y-18228214D01*
X13698214Y-18228214D01*
X13726786Y-18242500D01*
X13741071Y-18271072D01*
X13741071Y-18299643D01*
X13598214Y-18328214D01*
X13841071Y-18542500D02*
X13855357Y-18528214D01*
X13883928Y-18485357D01*
X13898214Y-18456786D01*
X13912500Y-18413929D01*
X13926786Y-18342500D01*
X13926786Y-18285357D01*
X13912500Y-18213929D01*
X13898214Y-18171072D01*
X13883928Y-18142500D01*
X13855357Y-18099643D01*
X13841071Y-18085357D01*
X7452500Y-18567300D02*
X7452500Y-18887300D01*
X7292500Y-18727300D02*
X7612500Y-18727300D01*
X7452500Y-18887300D02*
X7612500Y-18727300D01*
X7452500Y-18567300D01*
X7292500Y-18727300D01*
X7452500Y-18887300D01*
X7855357Y-18563014D02*
X8041071Y-18563014D01*
X7941071Y-18677300D01*
X7983928Y-18677300D01*
X8012500Y-18691586D01*
X8026786Y-18705872D01*
X8041071Y-18734443D01*
X8041071Y-18805872D01*
X8026786Y-18834443D01*
X8012500Y-18848729D01*
X7983928Y-18863014D01*
X7898214Y-18863014D01*
X7869643Y-18848729D01*
X7855357Y-18834443D01*
X8169643Y-18834443D02*
X8183928Y-18848729D01*
X8169643Y-18863014D01*
X8155357Y-18848729D01*
X8169643Y-18834443D01*
X8169643Y-18863014D01*
X8298214Y-18591586D02*
X8312500Y-18577300D01*
X8341071Y-18563014D01*
X8412500Y-18563014D01*
X8441071Y-18577300D01*
X8455357Y-18591586D01*
X8469643Y-18620157D01*
X8469643Y-18648729D01*
X8455357Y-18691586D01*
X8283928Y-18863014D01*
X8469643Y-18863014D01*
X8655357Y-18563014D02*
X8683929Y-18563014D01*
X8712500Y-18577300D01*
X8726786Y-18591586D01*
X8741071Y-18620157D01*
X8755357Y-18677300D01*
X8755357Y-18748729D01*
X8741071Y-18805872D01*
X8726786Y-18834443D01*
X8712500Y-18848729D01*
X8683929Y-18863014D01*
X8655357Y-18863014D01*
X8626786Y-18848729D01*
X8612500Y-18834443D01*
X8598214Y-18805872D01*
X8583929Y-18748729D01*
X8583929Y-18677300D01*
X8598214Y-18620157D01*
X8612500Y-18591586D01*
X8626786Y-18577300D01*
X8655357Y-18563014D01*
X8883929Y-18863014D02*
X8883929Y-18663014D01*
X8883929Y-18691586D02*
X8898214Y-18677300D01*
X8926786Y-18663014D01*
X8969643Y-18663014D01*
X8998214Y-18677300D01*
X9012500Y-18705872D01*
X9012500Y-18863014D01*
X9012500Y-18705872D02*
X9026786Y-18677300D01*
X9055357Y-18663014D01*
X9098214Y-18663014D01*
X9126786Y-18677300D01*
X9141071Y-18705872D01*
X9141071Y-18863014D01*
X9283929Y-18863014D02*
X9283929Y-18663014D01*
X9283929Y-18691586D02*
X9298214Y-18677300D01*
X9326786Y-18663014D01*
X9369643Y-18663014D01*
X9398214Y-18677300D01*
X9412500Y-18705872D01*
X9412500Y-18863014D01*
X9412500Y-18705872D02*
X9426786Y-18677300D01*
X9455357Y-18663014D01*
X9498214Y-18663014D01*
X9526786Y-18677300D01*
X9541071Y-18705872D01*
X9541071Y-18863014D01*
X10126786Y-18548729D02*
X9869643Y-18934443D01*
X10512500Y-18563014D02*
X10541071Y-18563014D01*
X10569643Y-18577300D01*
X10583928Y-18591586D01*
X10598214Y-18620157D01*
X10612500Y-18677300D01*
X10612500Y-18748729D01*
X10598214Y-18805872D01*
X10583928Y-18834443D01*
X10569643Y-18848729D01*
X10541071Y-18863014D01*
X10512500Y-18863014D01*
X10483928Y-18848729D01*
X10469643Y-18834443D01*
X10455357Y-18805872D01*
X10441071Y-18748729D01*
X10441071Y-18677300D01*
X10455357Y-18620157D01*
X10469643Y-18591586D01*
X10483928Y-18577300D01*
X10512500Y-18563014D01*
X10741071Y-18834443D02*
X10755357Y-18848729D01*
X10741071Y-18863014D01*
X10726786Y-18848729D01*
X10741071Y-18834443D01*
X10741071Y-18863014D01*
X11041071Y-18863014D02*
X10869643Y-18863014D01*
X10955357Y-18863014D02*
X10955357Y-18563014D01*
X10926786Y-18605872D01*
X10898214Y-18634443D01*
X10869643Y-18648729D01*
X11155357Y-18591586D02*
X11169643Y-18577300D01*
X11198214Y-18563014D01*
X11269643Y-18563014D01*
X11298214Y-18577300D01*
X11312500Y-18591586D01*
X11326785Y-18620157D01*
X11326785Y-18648729D01*
X11312500Y-18691586D01*
X11141071Y-18863014D01*
X11326785Y-18863014D01*
X11583928Y-18563014D02*
X11526785Y-18563014D01*
X11498214Y-18577300D01*
X11483928Y-18591586D01*
X11455357Y-18634443D01*
X11441071Y-18691586D01*
X11441071Y-18805872D01*
X11455357Y-18834443D01*
X11469643Y-18848729D01*
X11498214Y-18863014D01*
X11555357Y-18863014D01*
X11583928Y-18848729D01*
X11598214Y-18834443D01*
X11612500Y-18805872D01*
X11612500Y-18734443D01*
X11598214Y-18705872D01*
X11583928Y-18691586D01*
X11555357Y-18677300D01*
X11498214Y-18677300D01*
X11469643Y-18691586D01*
X11455357Y-18705872D01*
X11441071Y-18734443D01*
X11726786Y-18563014D02*
X11726786Y-18620157D01*
X11841071Y-18563014D02*
X11841071Y-18620157D01*
X12283928Y-18977300D02*
X12269643Y-18963014D01*
X12241071Y-18920157D01*
X12226785Y-18891586D01*
X12212500Y-18848729D01*
X12198214Y-18777300D01*
X12198214Y-18720157D01*
X12212500Y-18648729D01*
X12226785Y-18605872D01*
X12241071Y-18577300D01*
X12269643Y-18534443D01*
X12283928Y-18520157D01*
X12526785Y-18663014D02*
X12526785Y-18863014D01*
X12455357Y-18548729D02*
X12383928Y-18763014D01*
X12569643Y-18763014D01*
X12912500Y-18863014D02*
X12912500Y-18563014D01*
X13041071Y-18863014D02*
X13041071Y-18705872D01*
X13026785Y-18677300D01*
X12998214Y-18663014D01*
X12955357Y-18663014D01*
X12926785Y-18677300D01*
X12912500Y-18691586D01*
X13226785Y-18863014D02*
X13198214Y-18848729D01*
X13183928Y-18834443D01*
X13169643Y-18805872D01*
X13169643Y-18720157D01*
X13183928Y-18691586D01*
X13198214Y-18677300D01*
X13226785Y-18663014D01*
X13269643Y-18663014D01*
X13298214Y-18677300D01*
X13312500Y-18691586D01*
X13326785Y-18720157D01*
X13326785Y-18805872D01*
X13312500Y-18834443D01*
X13298214Y-18848729D01*
X13269643Y-18863014D01*
X13226785Y-18863014D01*
X13498214Y-18863014D02*
X13469643Y-18848729D01*
X13455357Y-18820157D01*
X13455357Y-18563014D01*
X13726786Y-18848729D02*
X13698214Y-18863014D01*
X13641071Y-18863014D01*
X13612500Y-18848729D01*
X13598214Y-18820157D01*
X13598214Y-18705872D01*
X13612500Y-18677300D01*
X13641071Y-18663014D01*
X13698214Y-18663014D01*
X13726786Y-18677300D01*
X13741071Y-18705872D01*
X13741071Y-18734443D01*
X13598214Y-18763014D01*
X13855357Y-18848729D02*
X13883928Y-18863014D01*
X13941071Y-18863014D01*
X13969643Y-18848729D01*
X13983928Y-18820157D01*
X13983928Y-18805872D01*
X13969643Y-18777300D01*
X13941071Y-18763014D01*
X13898214Y-18763014D01*
X13869643Y-18748729D01*
X13855357Y-18720157D01*
X13855357Y-18705872D01*
X13869643Y-18677300D01*
X13898214Y-18663014D01*
X13941071Y-18663014D01*
X13969643Y-18677300D01*
X14083928Y-18977300D02*
X14098214Y-18963014D01*
X14126786Y-18920157D01*
X14141071Y-18891586D01*
X14155357Y-18848729D01*
X14169643Y-18777300D01*
X14169643Y-18720157D01*
X14155357Y-18648729D01*
X14141071Y-18605872D01*
X14126786Y-18577300D01*
X14098214Y-18534443D01*
X14083928Y-18520157D01*
M02*
