M48
;DRILL file {KiCad 4.0.7} date 09/26/19 12:59:45
;FORMAT={-:-/ absolute / inch / decimal}
FMAT,2
INCH,TZ
T1C0.022
T2C0.032
T3C0.036
T4C0.039
T5C0.045
T6C0.048
T7C0.051
T8C0.056
T9C0.056
T10C0.071
T11C0.087
T12C0.120
T13C0.126
T14C0.138
%
G90
G05
M72
T1
X4.9002Y-3.7906
X4.9254Y-3.2
X5.075Y-3.2
X5.1002Y-3.7906
X6.9002Y-3.7906
X6.9254Y-3.2
X7.075Y-3.2
X7.1002Y-3.7906
T2
X3.45Y-3.1
X3.45Y-4.3
X3.45Y-4.7
X3.55Y-3.1
X3.75Y-4.3
X3.75Y-4.7
X3.85Y-3.45
X3.85Y-3.6
X3.85Y-3.75
X3.85Y-3.9
X3.85Y-4.05
X3.95Y-3.1
X4.05Y-3.1
X4.15Y-3.45
X4.15Y-3.6
X4.15Y-3.75
X4.15Y-3.9
X4.15Y-4.05
X4.3Y-4.05
X4.45Y-3.1
X4.45Y-4.4
X4.45Y-4.6
X4.55Y-3.1
X4.6Y-4.05
X4.7Y-3.05
X4.7Y-4.35
X4.7Y-4.65
X4.8Y-4.35
X4.8Y-4.65
X4.85Y-4.05
X4.9Y-4.35
X4.9Y-4.65
X4.95Y-2.4
X4.95Y-2.6
X4.95Y-2.7
X4.95Y-2.9
X5.Y-3.05
X5.Y-4.35
X5.Y-4.65
X5.1Y-4.35
X5.1Y-4.65
X5.15Y-3.1
X5.15Y-4.05
X5.2Y-4.35
X5.2Y-4.65
X5.3Y-4.35
X5.3Y-4.65
X5.35Y-3.1
X5.7Y-4.35
X5.7Y-4.65
X5.8Y-4.35
X5.8Y-4.65
X5.85Y-3.05
X5.85Y-3.2
X5.85Y-3.35
X5.85Y-3.5
X5.85Y-3.65
X5.9Y-4.35
X5.9Y-4.65
X6.Y-4.35
X6.Y-4.65
X6.1Y-4.35
X6.1Y-4.65
X6.15Y-3.05
X6.15Y-3.2
X6.15Y-3.35
X6.15Y-3.5
X6.15Y-3.65
X6.2Y-4.35
X6.2Y-4.65
X6.3Y-4.35
X6.3Y-4.65
X6.55Y-4.4
X6.55Y-4.6
X6.65Y-3.1
X6.85Y-3.1
X6.85Y-4.05
X6.85Y-4.25
X6.85Y-4.4
X6.9Y-4.6
X6.9Y-4.8
X7.05Y-2.4
X7.05Y-2.6
X7.05Y-2.7
X7.05Y-2.9
X7.1Y-4.6
X7.1Y-4.8
X7.15Y-4.05
X7.15Y-4.25
X7.15Y-4.4
X7.25Y-3.05
X7.25Y-3.2
X7.975Y-3.425
X7.975Y-3.625
X8.Y-4.25
X8.15Y-3.1
X8.15Y-3.375
X8.15Y-3.675
X8.15Y-4.25
X8.25Y-3.1
X8.475Y-3.15
X8.625Y-3.15
T3
X4.775Y-4.825
X4.875Y-4.825
X4.975Y-4.825
X5.075Y-4.825
X5.175Y-4.825
X5.275Y-4.825
X5.35Y-4.05
X5.45Y-4.05
X5.55Y-4.05
X5.65Y-4.05
X6.35Y-4.05
X6.45Y-4.05
X6.55Y-4.05
X6.65Y-4.05
T4
X3.4Y-3.8
X3.5Y-3.8
X3.6Y-3.8
X4.4Y-3.8
X4.5Y-3.8
X4.6Y-3.8
X5.4Y-3.8
X5.5Y-3.8
X5.6Y-3.8
X6.4Y-3.8
X6.5Y-3.8
X6.6Y-3.8
X7.4Y-3.8
X7.4Y-4.8
X7.5Y-3.8
X7.5Y-4.8
X7.6Y-3.8
X7.6Y-4.8
T5
X8.375Y-4.15
X8.475Y-4.15
X8.575Y-4.15
T6
X3.5Y-2.9
X4.Y-2.9
X4.5Y-2.9
X5.25Y-2.9
X5.75Y-2.9
X6.25Y-2.9
X6.75Y-2.9
T7
X7.325Y-2.525
X7.3447Y-2.8124
X7.5061Y-2.3715
X7.6045Y-2.6392
X7.7108Y-2.6864
T8
X3.5Y-2.778
X4.Y-2.778
X4.5Y-2.778
X5.25Y-2.778
X5.75Y-2.778
X6.25Y-2.778
X6.75Y-2.778
T9
X3.5Y-2.4512
X4.Y-2.4512
X4.5Y-2.4512
X5.25Y-2.4512
X5.75Y-2.4512
X6.25Y-2.4512
X6.75Y-2.4512
T10
X3.2933Y-3.5047
X3.7067Y-3.5047
X4.2933Y-3.5047
X4.7067Y-3.5047
X5.2933Y-3.5047
X5.7067Y-3.5047
X6.2933Y-3.5047
X6.7067Y-3.5047
X7.2933Y-3.5047
X7.2933Y-4.5047
X7.7067Y-3.5047
X7.7067Y-4.5047
T11
X4.Y-4.3
X4.Y-4.5
X4.Y-4.7
T12
X8.475Y-3.5
T13
X3.15Y-2.45
X3.15Y-4.8
X8.55Y-2.45
X8.55Y-4.8
T14
X8.015Y-2.7319
X8.2Y-2.6138
X8.2Y-2.85
T0
M30
